<svg width="222" height="22" viewBox="0 0 222 22" fill="none" xmlns="http://www.w3.org/2000/svg">
<path d="M6.17265 0.834229H9.00219L15.1675 15.3341H11.9589L10.4915 11.744H4.59769L3.13034 15.3341H0L6.17265 0.834229ZM9.40082 9.03182L7.54462 3.79094L5.69576 9.03182H9.40082Z" fill="black"/>
<path d="M24.3185 0.746338V12.6099H32.0954V15.3342H21.3984V0.746338H24.3185Z" fill="black"/>
<path d="M42.1231 0.746338V12.6099H49.905V15.3342H39.208V0.746338H42.1231Z" fill="black"/>
<path d="M56.9507 15.3325V0.754395H67.6672V3.47877H59.8683V6.58466L66.2463 6.60422V9.31638L59.8683 9.29681V12.613H67.6477V15.3374L56.9507 15.3325Z" fill="black"/>
<path d="M75.3877 0.834229H81.7462C83.5266 0.834229 84.879 1.31111 85.8108 2.24288C86.608 3.04258 87.0067 4.10153 87.0067 5.43437V5.4735C87.0067 7.72833 85.7839 9.14187 84.023 9.79974L87.6205 15.3341H83.8078L80.8731 9.98559H78.4618V15.3341H75.3877V0.834229ZM81.5628 7.60115C83.0791 7.60115 83.9154 6.8259 83.9154 5.64469V5.59578C83.9154 4.26538 83.0106 3.61241 81.5041 3.61241H78.4496V7.60849L81.5628 7.60115Z" fill="black"/>
<path d="M94.3779 15.3342V0.746338H95.3562L101.676 7.94369L108.007 0.746338H108.985V15.3342H106.058V6.87253L101.68 11.7368L97.3053 6.87253V15.3342H94.3779Z" fill="black"/>
<path d="M121.783 0.834229H124.612L130.777 15.3341H127.569L126.101 11.744H120.208L118.74 15.3341H115.61L121.783 0.834229ZM125.011 9.03182L123.154 3.79094L121.306 9.03182H125.011Z" fill="black"/>
<path d="M136.98 15.3342V0.746338H137.959L147.086 9.88793V0.746338H150.02V15.3342H148.952L139.903 6.28558V15.3342H136.98Z" fill="black"/>
<path d="M167.214 11.4472C167.214 12.8789 166.787 14.0175 165.933 14.8632C165.079 15.7088 163.927 16.1307 162.479 16.1288C161.7 16.1086 160.926 15.9932 160.176 15.7852C159.52 15.5947 158.843 15.486 158.161 15.4616C158.119 14.2399 158.031 13.0173 157.899 11.7937C157.899 11.6763 158.008 11.619 158.224 11.619C158.285 11.6086 158.348 11.6205 158.401 11.6526C158.454 11.6847 158.493 11.7349 158.512 11.7937C158.896 13.1299 159.396 14.0719 160.012 14.6198C160.619 15.1667 161.474 15.4387 162.571 15.4387C162.944 15.4622 163.318 15.407 163.668 15.2768C164.018 15.1465 164.337 14.9441 164.603 14.6828C165.084 14.1817 165.325 13.4745 165.325 12.5697C165.318 11.9708 165.094 11.3946 164.695 10.9462C164.275 10.446 163.382 9.79988 162.018 9.0077C160.446 8.10862 159.419 7.34507 158.935 6.71705C158.463 6.12414 158.207 5.3891 158.21 4.63255C158.202 4.07429 158.314 3.52077 158.539 3.00947C158.765 2.49817 159.098 2.04104 159.517 1.66902C160.419 0.846767 161.61 0.410666 162.833 0.454979C163.42 0.464653 164.006 0.532755 164.58 0.658272C165.105 0.771656 165.64 0.833986 166.177 0.844386C166.264 2.10997 166.379 3.22475 166.523 4.18873C166.523 4.30327 166.431 4.36053 166.235 4.36053C166.039 4.36053 165.921 4.30327 165.901 4.18873C165.663 3.11022 165.3 2.33331 164.813 1.858C164.542 1.61101 164.224 1.42062 163.878 1.29815C163.532 1.17568 163.165 1.1236 162.798 1.14503C162.443 1.12689 162.089 1.18074 161.756 1.30331C161.423 1.42589 161.118 1.61462 160.861 1.858C160.615 2.11165 160.424 2.41275 160.3 2.74272C160.175 3.07269 160.121 3.4245 160.138 3.77642C160.152 4.32161 160.367 4.84273 160.743 5.23957C161.146 5.70343 162.018 6.32382 163.359 7.10073C164.948 8.0189 165.988 8.78817 166.48 9.40856C166.958 9.98164 167.219 10.7027 167.219 11.4472" fill="black"/>
<path d="M179.338 11.1882C179.358 11.8425 179.24 12.4937 178.992 13.1001C178.744 13.7065 178.372 14.2549 177.899 14.7101C177.41 15.1764 176.831 15.5403 176.198 15.7803C175.564 16.0203 174.889 16.1315 174.212 16.1074C173.444 16.1285 172.683 15.9582 171.998 15.612V18.9392C171.998 19.6379 172.09 20.0845 172.269 20.325C172.447 20.5656 172.844 20.6973 173.475 20.7774C173.59 20.7774 173.648 20.8777 173.648 21.0638C173.648 21.2499 173.59 21.3501 173.475 21.3501C173.187 21.3501 172.795 21.3272 172.323 21.2814C171.851 21.2356 171.391 21.2184 171.045 21.2184C170.7 21.2184 170.248 21.2384 169.733 21.2814C169.27 21.3272 168.887 21.3501 168.581 21.3501C168.466 21.3501 168.409 21.2499 168.409 21.0638C168.409 20.8777 168.466 20.7774 168.581 20.7774C169.197 20.6973 169.597 20.5484 169.782 20.325C169.966 20.1017 170.07 19.6407 170.07 18.9421V9.38718C170.07 8.81452 169.995 8.4337 169.848 8.24186C169.701 8.05001 169.367 7.95553 168.852 7.88681C168.74 7.88681 168.679 7.78946 168.679 7.60048C168.679 7.4115 168.74 7.33419 168.852 7.33419C169.458 7.1949 170.049 6.99636 170.616 6.74148C170.957 6.60064 171.274 6.4074 171.555 6.16882C171.582 6.13269 171.616 6.10238 171.655 6.07974C171.694 6.0571 171.737 6.0426 171.782 6.03711C171.987 6.03711 172.07 6.09437 172.07 6.21177L171.984 7.56898C172.386 7.15601 172.851 6.80907 173.363 6.54105C173.767 6.29755 174.224 6.15418 174.695 6.12301C176.121 6.12301 177.249 6.58591 178.08 7.51171C178.911 8.43752 179.327 9.65824 179.327 11.1739M177.136 11.151C177.136 9.9503 176.874 9.01304 176.35 8.33921C176.092 8.00754 175.757 7.74276 175.373 7.56732C174.99 7.39187 174.57 7.31092 174.148 7.33132C173.775 7.32744 173.405 7.41287 173.072 7.58043C172.66 7.82298 172.292 8.13273 171.984 8.4967V13.7824C171.986 14.0085 172.043 14.2308 172.15 14.4302C172.258 14.6296 172.412 14.8003 172.6 14.9277C173.035 15.2466 173.565 15.411 174.105 15.3944C174.544 15.4151 174.981 15.3244 175.374 15.1311C175.768 14.9378 176.106 14.6481 176.356 14.2892C176.878 13.5504 177.138 12.5006 177.136 11.1395" fill="black"/>
<path d="M186.329 15.4781C186.329 15.6785 186.272 15.7787 186.157 15.7787C185.869 15.7787 185.48 15.7587 185.005 15.7157C184.487 15.6728 184.05 15.6499 183.698 15.6499C183.347 15.6499 182.907 15.6728 182.403 15.7157C181.945 15.7587 181.571 15.7787 181.275 15.7787C181.16 15.7787 181.102 15.6785 181.102 15.4781C181.102 15.2977 181.16 15.1917 181.275 15.1917C181.888 15.1144 182.285 14.9684 182.461 14.7508C182.636 14.5332 182.728 14.075 182.728 13.3735V9.38205C182.728 8.80939 182.654 8.42858 182.504 8.25105C182.354 8.07353 182.035 7.96472 181.534 7.896C181.419 7.896 181.361 7.79865 181.361 7.60967C181.361 7.42069 181.419 7.34338 181.534 7.34338C182.17 7.19058 182.792 6.98366 183.393 6.7249C183.726 6.59983 184.034 6.41548 184.3 6.18087C184.328 6.14272 184.363 6.11112 184.405 6.08834C184.446 6.06557 184.492 6.05219 184.539 6.04916C184.74 6.04916 184.827 6.10642 184.827 6.22382C184.712 7.833 184.654 9.08428 184.654 9.97763V13.3649C184.654 14.0693 184.743 14.5303 184.919 14.745C185.095 14.9598 185.495 15.1087 186.131 15.186C186.246 15.2032 186.303 15.2977 186.303 15.4723M184.784 2.42993C184.785 2.65354 184.719 2.87244 184.595 3.05884C184.471 3.24524 184.294 3.39072 184.086 3.47682C183.879 3.56292 183.65 3.58574 183.43 3.54239C183.209 3.49904 183.007 3.39148 182.848 3.23337C182.689 3.07525 182.58 2.8737 182.537 2.65433C182.493 2.43496 182.516 2.20766 182.603 2.00129C182.689 1.79491 182.836 1.61878 183.023 1.49525C183.21 1.37173 183.43 1.30638 183.655 1.30751C183.803 1.30514 183.95 1.33258 184.087 1.38819C184.224 1.44379 184.349 1.52642 184.453 1.63107C184.56 1.73437 184.645 1.85865 184.702 1.99612C184.759 2.13358 184.787 2.28127 184.784 2.42993" fill="black"/>
<path d="M199.592 15.4782C199.592 15.6786 199.535 15.7817 199.419 15.7817C199.065 15.7774 198.71 15.7554 198.357 15.7159C197.894 15.6729 197.494 15.65 197.134 15.65C196.774 15.65 196.36 15.6729 195.89 15.7159C195.421 15.7588 195.107 15.7817 194.82 15.7817C194.704 15.7817 194.647 15.6786 194.647 15.4782C194.647 15.2778 194.704 15.1919 194.82 15.1919C195.318 15.1346 195.646 14.9972 195.801 14.771C195.957 14.5448 196.034 14.0838 196.034 13.3708V9.76017C196.034 8.95653 195.875 8.36669 195.557 7.99064C195.368 7.79387 195.138 7.64157 194.883 7.54494C194.628 7.44831 194.355 7.40981 194.083 7.43229C193.699 7.42446 193.319 7.50481 192.972 7.66709C192.577 7.88195 192.226 8.16732 191.935 8.5089V13.3765C191.935 14.0895 192.013 14.5534 192.169 14.7767C192.324 15 192.652 15.1403 193.15 15.1976C193.265 15.2148 193.323 15.3093 193.323 15.4839C193.323 15.6586 193.265 15.7874 193.15 15.7874C192.862 15.7874 192.491 15.7645 192.065 15.7216C191.596 15.6786 191.184 15.6557 190.83 15.6557C190.476 15.6557 190.076 15.6786 189.615 15.7216C189.155 15.7645 188.827 15.7874 188.53 15.7874C188.415 15.7874 188.357 15.6844 188.357 15.4839C188.357 15.2835 188.415 15.1976 188.53 15.1976C189.152 15.1203 189.552 14.9714 189.733 14.7509C189.915 14.5304 190.007 14.0752 190.007 13.3794V9.38221C190.007 8.80955 189.932 8.42873 189.782 8.25121C189.633 8.07368 189.304 7.96488 188.792 7.89616C188.674 7.89616 188.616 7.7988 188.616 7.60983C188.616 7.42085 188.674 7.34353 188.792 7.34353C189.407 7.20023 190.006 6.99591 190.58 6.73364C190.91 6.60359 191.215 6.41652 191.481 6.18103C191.508 6.14258 191.544 6.11077 191.585 6.08796C191.626 6.06515 191.672 6.05194 191.719 6.04932C191.921 6.04932 192.007 6.10658 192.007 6.22397L191.921 7.58119C192.963 6.61339 193.935 6.12949 194.837 6.12949C195.818 6.12949 196.587 6.41582 197.14 6.9713C197.423 7.27458 197.642 7.63125 197.785 8.02026C197.927 8.40926 197.99 8.82272 197.969 9.23619V13.3594C197.969 14.0637 198.058 14.5247 198.234 14.7395C198.409 14.9542 198.809 15.1031 199.422 15.1804C199.537 15.1976 199.595 15.2921 199.595 15.4668" fill="black"/>
<path d="M213.19 15.4791C213.19 15.6795 213.133 15.7826 213.017 15.7826C212.73 15.7826 212.355 15.7597 211.901 15.7167C211.4 15.6738 210.974 15.6509 210.62 15.6509C210.266 15.6509 209.822 15.6738 209.287 15.7167C208.752 15.7597 208.392 15.7826 208.104 15.7826C207.989 15.7826 207.931 15.6795 207.931 15.4791C207.931 15.2786 207.989 15.1927 208.104 15.1927C208.244 15.185 208.381 15.149 208.507 15.0868C208.549 15.0525 208.582 15.0084 208.602 14.9584C208.623 14.9085 208.631 14.8542 208.625 14.8005C208.625 14.5867 208.278 14.1095 207.583 13.3688L205.856 11.4475C205.779 11.3754 205.689 11.3192 205.59 11.2823C205.491 11.2454 205.386 11.2286 205.28 11.2328V13.3688C205.246 13.8296 205.326 14.2916 205.513 14.7146C205.608 14.8571 205.736 14.9747 205.887 15.0574C206.037 15.1402 206.205 15.1856 206.377 15.1899C206.492 15.2071 206.55 15.3016 206.55 15.4762C206.55 15.6509 206.492 15.7797 206.377 15.7797C206.066 15.7797 205.663 15.7568 205.162 15.7139C204.661 15.6709 204.316 15.648 204.042 15.648C203.769 15.648 203.357 15.6709 202.917 15.7139C202.476 15.7568 202.151 15.7797 201.878 15.7797C201.76 15.7797 201.702 15.6766 201.702 15.4762C201.702 15.2758 201.76 15.1899 201.878 15.1899C202.485 15.1269 202.877 14.9866 203.058 14.7661C203.239 14.5456 203.346 14.0818 203.346 13.3688V3.34721C203.346 2.77455 203.274 2.38514 203.133 2.20189C202.992 2.01864 202.664 1.91556 202.151 1.84684C202.036 1.82966 201.978 1.7409 201.978 1.56051C201.978 1.38012 202.036 1.27418 202.151 1.27418C203.387 0.985938 204.299 0.604163 204.886 0.128853C204.965 0.0554539 205.066 0.0101425 205.174 0C205.372 0 205.461 0.057268 205.461 0.171801C205.346 1.35339 205.289 2.60657 205.289 3.93133V10.6143C205.514 10.6272 205.735 10.5545 205.908 10.411L207.522 8.88486C207.571 8.83332 207.658 8.75887 207.773 8.65866C208.372 8.11463 208.671 7.71091 208.671 7.44748C208.671 7.2585 208.383 7.12679 207.807 7.05521C207.692 7.04089 207.635 6.94354 207.635 6.76888C207.635 6.59422 207.692 6.48255 207.807 6.48255C208.113 6.48255 208.495 6.50545 208.959 6.5484C209.422 6.59135 209.739 6.61139 210.021 6.61139C210.293 6.60797 210.565 6.58981 210.836 6.55699C211.196 6.51084 211.558 6.48598 211.921 6.48255C212.036 6.48255 212.093 6.58276 212.093 6.76888C212.093 6.95499 212.036 7.05521 211.921 7.05521C211.442 7.10022 210.975 7.2261 210.539 7.42744C209.957 7.74924 209.419 8.14482 208.939 8.60426L207.073 10.2478L209.889 13.3659C210.33 13.8818 210.84 14.3347 211.406 14.7117C211.904 14.9837 212.456 15.1458 213.023 15.187C213.138 15.2042 213.196 15.2987 213.196 15.4734" fill="black"/>
<path d="M222 13.0026C222.005 13.4254 221.914 13.8439 221.734 14.2271C221.554 14.6102 221.29 14.9482 220.961 15.2159C220.264 15.8149 219.368 16.1344 218.448 16.1121C217.907 16.087 217.37 16.0113 216.844 15.8859C216.482 15.8019 216.113 15.7473 215.742 15.7227C215.681 15.2188 215.549 14.4543 215.339 13.4321C215.339 13.3233 215.445 13.2688 215.656 13.2688C215.866 13.2688 215.943 13.3261 215.969 13.4406C216.149 13.9934 216.493 14.4787 216.957 14.8322C217.376 15.2026 217.913 15.4136 218.474 15.4278C218.703 15.4413 218.933 15.409 219.15 15.3328C219.367 15.2566 219.567 15.138 219.737 14.984C219.893 14.8185 220.013 14.6233 220.09 14.4101C220.167 14.1969 220.2 13.9703 220.186 13.7442C220.187 13.5778 220.154 13.4129 220.091 13.2591C220.027 13.1053 219.933 12.9655 219.815 12.8479C219.328 12.4445 218.78 12.1207 218.191 11.8887C217.1 11.3905 216.379 10.9228 216.03 10.4857C215.826 10.2248 215.677 9.9265 215.59 9.60792C215.503 9.28933 215.48 8.95678 215.523 8.62942C215.566 8.30206 215.673 7.98635 215.839 7.70049C216.005 7.41464 216.227 7.16428 216.49 6.96383C217.138 6.41666 217.963 6.12076 218.813 6.13061C219.346 6.14938 219.875 6.21453 220.396 6.32531C220.639 6.37912 220.885 6.41549 221.133 6.43412C221.153 7.29311 221.202 8.00608 221.274 8.60165C221.274 8.71046 221.168 8.76486 220.958 8.76486C220.748 8.76486 220.67 8.70759 220.655 8.59019C220.597 8.11319 220.39 7.66644 220.062 7.31316C219.916 7.15479 219.738 7.02901 219.54 6.94412C219.341 6.85923 219.127 6.81716 218.911 6.82067C217.788 6.82067 217.227 7.3103 217.227 8.28955C217.233 8.63511 217.376 8.96438 217.624 9.20581C218.143 9.65162 218.725 10.0192 219.351 10.2967C220.417 10.8274 221.118 11.2874 221.456 11.6768C221.784 12.0366 221.966 12.5052 221.965 12.9911" fill="black"/>
</svg>
