<svg width="448" height="44" viewBox="0 0 448 44" fill="none" xmlns="http://www.w3.org/2000/svg">
<path d="M12.4565 1.68359H18.1666L30.6083 30.9446H24.1333L21.1721 23.6996H9.27823L6.31709 30.9446H0L12.4565 1.68359ZM18.971 18.2265L15.2252 7.65029L11.4942 18.2265H18.971Z" fill="black"/>
<path d="M49.0753 1.5061V25.4469H64.7693V30.9447H43.1826V1.5061H49.0753Z" fill="black"/>
<path d="M85.0049 1.5061V25.4469H100.709V30.9447H79.1221V1.5061H85.0049Z" fill="black"/>
<path d="M114.928 30.9411V1.52222H136.554V7.02006H120.815V13.2878L133.687 13.3273V18.8005L120.815 18.761V25.4531H136.514V30.951L114.928 30.9411Z" fill="black"/>
<path d="M152.134 1.68359H164.965C168.558 1.68359 171.287 2.64595 173.168 4.52628C174.777 6.1401 175.581 8.27706 175.581 10.9668V11.0457C175.581 15.596 173.113 18.4486 169.56 19.7761L176.82 30.9446H169.126L163.204 20.1512H158.337V30.9446H152.134V1.68359ZM164.595 15.3394C167.655 15.3394 169.343 13.7749 169.343 11.3912V11.2925C169.343 8.60772 167.517 7.29001 164.477 7.29001H158.313V15.3542L164.595 15.3394Z" fill="black"/>
<path d="M190.457 30.9447V1.5061H192.431L205.183 16.0305L217.961 1.5061H219.935V30.9447H214.027V13.8689L205.193 23.685L196.364 13.8689V30.9447H190.457Z" fill="black"/>
<path d="M245.76 1.68359H251.47L263.912 30.9446H257.437L254.475 23.6996H242.581L239.62 30.9446H233.303L245.76 1.68359ZM252.274 18.2265L248.528 7.65029L244.797 18.2265H252.274Z" fill="black"/>
<path d="M276.429 30.9447V1.5061H278.403L296.822 19.954V1.5061H302.744V30.9447H300.587L282.327 12.6844V30.9447H276.429Z" fill="black"/>
<path d="M337.441 23.1006C337.441 25.9898 336.579 28.2876 334.856 29.9941C333.133 31.7006 330.809 32.5519 327.885 32.548C326.314 32.5074 324.753 32.2745 323.238 31.8546C321.915 31.4703 320.549 31.251 319.172 31.2017C319.087 28.7363 318.911 26.269 318.644 23.7998C318.644 23.5629 318.864 23.4473 319.3 23.4473C319.423 23.4262 319.55 23.4503 319.657 23.5151C319.764 23.5799 319.843 23.6811 319.881 23.7998C320.655 26.4963 321.664 28.3974 322.907 29.5029C324.133 30.6066 325.858 31.1555 328.071 31.1555C328.824 31.2029 329.579 31.0916 330.286 30.8287C330.992 30.5658 331.635 30.1573 332.172 29.63C333.142 28.6188 333.63 27.1916 333.63 25.3657C333.615 24.1572 333.164 22.9944 332.358 22.0895C331.51 21.0802 329.709 19.7762 326.956 18.1776C323.784 16.3632 321.711 14.8224 320.735 13.555C319.781 12.3585 319.265 10.8752 319.271 9.34849C319.254 8.22191 319.481 7.10488 319.936 6.07308C320.391 5.04127 321.064 4.11877 321.908 3.36803C323.729 1.7087 326.132 0.828646 328.6 0.91807C329.786 0.937593 330.967 1.07502 332.126 1.32832C333.186 1.55713 334.265 1.68291 335.35 1.7039C335.524 4.25787 335.756 6.50752 336.047 8.45286C336.047 8.68398 335.861 8.79955 335.466 8.79955C335.071 8.79955 334.833 8.68398 334.792 8.45286C334.312 6.27639 333.58 4.70858 332.596 3.74939C332.05 3.25095 331.409 2.86675 330.71 2.6196C330.012 2.37245 329.27 2.26737 328.53 2.31061C327.815 2.27399 327.099 2.38267 326.427 2.63002C325.755 2.87738 325.14 3.25824 324.621 3.74939C324.125 4.26126 323.739 4.86889 323.488 5.53477C323.238 6.20065 323.127 6.91062 323.163 7.62079C323.189 8.721 323.624 9.77263 324.383 10.5735C325.196 11.5095 326.956 12.7615 329.663 14.3293C332.869 16.1822 334.968 17.7346 335.96 18.9866C336.924 20.143 337.452 21.5982 337.453 23.1006" fill="black"/>
<path d="M361.909 22.5785C361.948 23.8989 361.71 25.213 361.21 26.4367C360.71 27.6605 359.959 28.767 359.004 29.6857C358.016 30.6267 356.849 31.361 355.571 31.8454C354.293 32.3297 352.93 32.5542 351.563 32.5055C350.014 32.548 348.478 32.2044 347.096 31.5058V38.2201C347.096 39.63 347.282 40.5314 347.642 41.0168C348.002 41.5022 348.804 41.7679 350.076 41.9297C350.308 41.9297 350.425 42.132 350.425 42.5076C350.425 42.8831 350.308 43.0854 350.076 43.0854C349.495 43.0854 348.705 43.0392 347.753 42.9467C346.8 42.8543 345.87 42.8196 345.173 42.8196C344.476 42.8196 343.564 42.86 342.525 42.9467C341.591 43.0392 340.817 43.0854 340.201 43.0854C339.969 43.0854 339.853 42.8831 339.853 42.5076C339.853 42.132 339.969 41.9297 340.201 41.9297C341.444 41.7679 342.252 41.4675 342.623 41.0168C342.995 40.5661 343.204 39.6358 343.204 38.2259V18.944C343.204 17.7883 343.053 17.0198 342.757 16.6327C342.461 16.2455 341.787 16.0549 340.747 15.9162C340.521 15.9162 340.399 15.7197 340.399 15.3384C340.399 14.957 340.521 14.801 340.747 14.801C341.971 14.5199 343.163 14.1193 344.308 13.6049C344.996 13.3207 345.635 12.9307 346.202 12.4493C346.256 12.3764 346.325 12.3152 346.404 12.2695C346.483 12.2238 346.57 12.1945 346.66 12.1835C347.073 12.1835 347.241 12.299 347.241 12.5359L347.067 15.2748C347.879 14.4414 348.818 13.7413 349.85 13.2004C350.665 12.709 351.588 12.4197 352.539 12.3568C355.416 12.3568 357.693 13.291 359.37 15.1593C361.047 17.0275 361.885 19.491 361.885 22.5496M357.465 22.5034C357.465 20.0804 356.936 18.189 355.879 16.8291C355.357 16.1598 354.681 15.6255 353.907 15.2715C353.134 14.9174 352.286 14.754 351.435 14.7952C350.681 14.7874 349.936 14.9598 349.263 15.2979C348.432 15.7874 347.69 16.4125 347.067 17.147V27.8135C347.072 28.2699 347.187 28.7185 347.404 29.1209C347.62 29.5234 347.931 29.8678 348.31 30.1248C349.188 30.7685 350.258 31.1002 351.348 31.0667C352.233 31.1083 353.115 30.9255 353.909 30.5353C354.704 30.1452 355.386 29.5605 355.891 28.8363C356.944 27.3455 357.469 25.2268 357.465 22.4802" fill="black"/>
<path d="M376.016 31.2351C376.016 31.6396 375.9 31.8418 375.668 31.8418C375.087 31.8418 374.303 31.8014 373.344 31.7147C372.298 31.628 371.416 31.5818 370.707 31.5818C369.998 31.5818 369.109 31.628 368.093 31.7147C367.169 31.8014 366.414 31.8418 365.816 31.8418C365.583 31.8418 365.467 31.6396 365.467 31.2351C365.467 30.8711 365.583 30.6573 365.816 30.6573C367.053 30.5013 367.855 30.2066 368.209 29.7674C368.563 29.3283 368.749 28.4038 368.749 26.9881V18.9333C368.749 17.7776 368.598 17.0091 368.296 16.6509C367.994 16.2926 367.349 16.0731 366.339 15.9344C366.106 15.9344 365.99 15.7379 365.99 15.3566C365.99 14.9752 366.106 14.8192 366.339 14.8192C367.623 14.5108 368.879 14.0933 370.091 13.5711C370.763 13.3187 371.383 12.9467 371.921 12.4732C371.977 12.3962 372.049 12.3325 372.132 12.2865C372.215 12.2406 372.308 12.2135 372.403 12.2074C372.81 12.2074 372.984 12.323 372.984 12.5599C372.752 15.8073 372.635 18.3324 372.635 20.1352V26.9708C372.635 28.3922 372.815 29.3225 373.17 29.7559C373.524 30.1893 374.332 30.4897 375.615 30.6457C375.848 30.6804 375.964 30.8711 375.964 31.2236M372.897 4.90377C372.899 5.35501 372.767 5.79676 372.516 6.17292C372.265 6.54907 371.908 6.84267 371.489 7.01641C371.071 7.19015 370.61 7.23621 370.164 7.14873C369.719 7.06126 369.311 6.8442 368.99 6.52512C368.669 6.20603 368.451 5.79931 368.363 5.35662C368.275 4.91392 368.321 4.45523 368.496 4.03876C368.671 3.62229 368.966 3.26685 369.344 3.01757C369.722 2.7683 370.166 2.63643 370.62 2.63871C370.918 2.63392 371.215 2.6893 371.491 2.80151C371.768 2.91372 372.019 3.08046 372.229 3.29166C372.446 3.50012 372.617 3.75091 372.732 4.02832C372.847 4.30574 372.903 4.60378 372.897 4.90377" fill="black"/>
<path d="M402.781 31.2353C402.781 31.6398 402.665 31.8478 402.432 31.8478C401.716 31.8391 401.001 31.7947 400.289 31.7149C399.354 31.6282 398.546 31.582 397.82 31.582C397.094 31.582 396.257 31.6282 395.311 31.7149C394.364 31.8016 393.731 31.8478 393.15 31.8478C392.917 31.8478 392.801 31.6398 392.801 31.2353C392.801 30.8308 392.917 30.6575 393.15 30.6575C394.155 30.5419 394.817 30.2646 395.131 29.8081C395.444 29.3516 395.601 28.4213 395.601 26.9826V19.6962C395.601 18.0745 395.28 16.8841 394.637 16.1253C394.257 15.7282 393.793 15.4208 393.278 15.2258C392.764 15.0308 392.212 14.9531 391.663 14.9985C390.889 14.9827 390.121 15.1449 389.42 15.4723C388.624 15.9059 387.915 16.4818 387.329 17.1711V26.9941C387.329 28.4329 387.486 29.369 387.8 29.8197C388.113 30.2704 388.776 30.5535 389.781 30.6691C390.013 30.7037 390.129 30.8944 390.129 31.2469C390.129 31.5993 390.013 31.8594 389.781 31.8594C389.2 31.8594 388.45 31.8131 387.591 31.7265C386.644 31.6398 385.813 31.5936 385.099 31.5936C384.384 31.5936 383.577 31.6398 382.647 31.7265C381.718 31.8131 381.056 31.8594 380.457 31.8594C380.225 31.8594 380.109 31.6514 380.109 31.2469C380.109 30.8424 380.225 30.6691 380.457 30.6691C381.712 30.513 382.52 30.2126 382.885 29.7676C383.251 29.3227 383.437 28.404 383.437 26.9999V18.9335C383.437 17.7778 383.286 17.0093 382.984 16.6511C382.682 16.2928 382.02 16.0733 380.986 15.9346C380.748 15.9346 380.632 15.7381 380.632 15.3568C380.632 14.9754 380.748 14.8194 380.986 14.8194C382.227 14.5302 383.435 14.1179 384.593 13.5886C385.261 13.3262 385.876 12.9487 386.411 12.4734C386.466 12.3958 386.538 12.3316 386.622 12.2856C386.705 12.2396 386.798 12.2129 386.894 12.2076C387.3 12.2076 387.474 12.3232 387.474 12.5601L387.3 15.299C389.403 13.346 391.364 12.3694 393.185 12.3694C395.165 12.3694 396.716 12.9473 397.832 14.0682C398.403 14.6802 398.846 15.4 399.133 16.185C399.421 16.9701 399.547 17.8044 399.505 18.6388V26.9594C399.505 28.3809 399.685 29.3112 400.039 29.7445C400.393 30.1779 401.201 30.4784 402.438 30.6344C402.67 30.669 402.787 30.8597 402.787 31.2122" fill="black"/>
<path d="M430.222 31.2371C430.222 31.6415 430.106 31.8495 429.874 31.8495C429.293 31.8495 428.538 31.8033 427.62 31.7167C426.609 31.63 425.749 31.5837 425.035 31.5837C424.32 31.5837 423.426 31.63 422.345 31.7167C421.265 31.8033 420.539 31.8495 419.958 31.8495C419.726 31.8495 419.609 31.6415 419.609 31.2371C419.609 30.8326 419.726 30.6592 419.958 30.6592C420.241 30.6437 420.518 30.5709 420.771 30.4454C420.856 30.3762 420.922 30.2872 420.963 30.1864C421.005 30.0855 421.021 29.976 421.009 29.8676C421.009 29.4362 420.308 28.4731 418.907 26.9785L415.421 23.1013C415.266 22.9557 415.084 22.8423 414.884 22.7679C414.685 22.6934 414.472 22.6595 414.259 22.668V26.9785C414.191 27.9084 414.353 28.8407 414.73 29.6943C414.921 29.9818 415.18 30.2191 415.483 30.3861C415.787 30.5531 416.126 30.6448 416.473 30.6535C416.705 30.6881 416.821 30.8788 416.821 31.2313C416.821 31.5838 416.705 31.8438 416.473 31.8438C415.845 31.8438 415.032 31.7975 414.021 31.7109C413.011 31.6242 412.313 31.578 411.762 31.578C411.21 31.578 410.379 31.6242 409.49 31.7109C408.602 31.7975 407.945 31.8438 407.393 31.8438C407.155 31.8438 407.039 31.6358 407.039 31.2313C407.039 30.8268 407.155 30.6535 407.393 30.6535C408.619 30.5263 409.409 30.2432 409.775 29.7983C410.141 29.3534 410.356 28.4173 410.356 26.9785V6.75474C410.356 5.5991 410.211 4.81326 409.926 4.44345C409.641 4.07365 408.979 3.86564 407.945 3.72696C407.713 3.69229 407.597 3.51316 407.597 3.14914C407.597 2.78511 407.713 2.57131 407.945 2.57131C410.439 1.98964 412.279 1.21921 413.464 0.260027C413.623 0.111907 413.827 0.0204677 414.045 0C414.445 0 414.625 0.115568 414.625 0.346697C414.393 2.73118 414.277 5.26011 414.277 7.9335V21.4199C414.73 21.4458 415.177 21.2991 415.526 21.0096L418.785 17.9298C418.883 17.8258 419.058 17.6756 419.29 17.4733C420.498 16.3755 421.102 15.5607 421.102 15.0292C421.102 14.6478 420.521 14.382 419.36 14.2375C419.127 14.2086 419.011 14.0122 419.011 13.6597C419.011 13.3072 419.127 13.0819 419.36 13.0819C419.975 13.0819 420.748 13.1281 421.683 13.2148C422.618 13.3015 423.257 13.3419 423.827 13.3419C424.376 13.335 424.925 13.2983 425.471 13.2321C426.197 13.139 426.928 13.0888 427.66 13.0819C427.893 13.0819 428.009 13.2841 428.009 13.6597C428.009 14.0353 427.893 14.2375 427.66 14.2375C426.695 14.3284 425.752 14.5824 424.872 14.9887C423.697 15.6381 422.611 16.4364 421.643 17.3636L417.878 20.6803L423.559 26.9727C424.449 28.0137 425.48 28.9276 426.621 29.6885C427.627 30.2373 428.741 30.5645 429.885 30.6477C430.118 30.6823 430.234 30.873 430.234 31.2255" fill="black"/>
<path d="M448 26.2399C448.01 27.0932 447.826 27.9378 447.463 28.711C447.1 29.4842 446.567 30.1662 445.903 30.7065C444.497 31.9153 442.689 32.56 440.832 32.515C439.741 32.4644 438.658 32.3116 437.596 32.0586C436.865 31.8889 436.121 31.7788 435.371 31.7292C435.249 30.7123 434.982 29.1695 434.558 27.1066C434.558 26.8871 434.773 26.7773 435.197 26.7773C435.621 26.7773 435.778 26.8928 435.83 27.124C436.193 28.2394 436.888 29.2188 437.823 29.9322C438.668 30.6797 439.753 31.1055 440.884 31.1341C441.348 31.1613 441.812 31.0961 442.25 30.9423C442.688 30.7885 443.09 30.5492 443.434 30.2384C443.748 29.9046 443.991 29.5105 444.146 29.0803C444.302 28.6501 444.368 28.1929 444.34 27.7365C444.342 27.4007 444.276 27.068 444.147 26.7576C444.019 26.4472 443.83 26.1652 443.591 25.9279C442.609 25.1137 441.503 24.4603 440.315 23.9922C438.111 22.9868 436.657 22.043 435.952 21.1609C435.542 20.6344 435.24 20.0324 435.065 19.3895C434.889 18.7465 434.843 18.0755 434.93 17.4148C435.016 16.7542 435.233 16.1171 435.568 15.5402C435.903 14.9634 436.35 14.4582 436.882 14.0536C438.189 12.9494 439.854 12.3523 441.569 12.3722C442.644 12.4101 443.713 12.5415 444.764 12.7651C445.254 12.8737 445.751 12.9471 446.251 12.9847C446.292 14.7181 446.391 16.1569 446.536 17.3588C446.536 17.5784 446.321 17.6882 445.897 17.6882C445.473 17.6882 445.316 17.5726 445.287 17.3357C445.17 16.3731 444.751 15.4715 444.09 14.7586C443.796 14.439 443.436 14.1852 443.036 14.0139C442.635 13.8426 442.203 13.7576 441.767 13.7647C439.501 13.7647 438.369 14.7528 438.369 16.729C438.381 17.4263 438.669 18.0908 439.17 18.578C440.217 19.4776 441.392 20.2194 442.656 20.7795C444.805 21.8504 446.22 22.7788 446.902 23.5646C447.564 24.2906 447.931 25.2363 447.93 26.2168" fill="black"/>
</svg>
