<svg width="326" height="80" viewBox="0 0 326 80" fill="none" xmlns="http://www.w3.org/2000/svg">
<path d="M9.07498 0.128906H13.235L22.2992 21.4465H17.5819L15.4246 16.1683H6.75949L4.60221 21.4465H0L9.07498 0.128906ZM13.821 12.1809L11.0921 4.47584L8.37387 12.1809H13.821Z" fill="white"/>
<path d="M35.7578 0V17.4417H47.1915V21.447H31.4648V0H35.7578Z" fill="white"/>
<path d="M61.9323 0V17.4417H73.3731V21.447H57.6465V0H61.9323Z" fill="white"/>
<path d="M83.7344 21.4463V0.0136719H99.4898V4.01903H88.0238V8.58529L97.4008 8.61405V12.6014L88.0238 12.5727V17.4481H99.461V21.4535L83.7344 21.4463Z" fill="white"/>
<path d="M110.832 0.128906H120.18C122.798 0.128906 124.786 0.830017 126.156 2.19989C127.328 3.37562 127.914 4.93246 127.914 6.892V6.94953C127.914 10.2646 126.116 12.3427 123.528 13.3099L128.817 21.4465H123.211L118.897 13.5832H115.352V21.4465H110.832V0.128906ZM119.911 10.0776C122.14 10.0776 123.369 8.93782 123.369 7.20121V7.1293C123.369 5.17336 122.039 4.21336 119.824 4.21336H115.334V10.0884L119.911 10.0776Z" fill="white"/>
<path d="M138.746 21.447V0H140.184L149.475 10.5815L158.784 0H160.222V21.447H155.918V9.00668L149.482 16.1581L143.05 9.00668V21.447H138.746Z" fill="white"/>
<path d="M179.044 0.128906H183.204L192.268 21.4465H187.551L185.393 16.1683H176.728L174.571 21.4465H169.969L179.044 0.128906ZM183.79 12.1809L181.061 4.47584L178.343 12.1809H183.79Z" fill="white"/>
<path d="M201.391 21.447V0H202.829L216.247 13.4399V0H220.562V21.447H218.99L205.687 8.14376V21.447H201.391Z" fill="white"/>
<path d="M9.04598 49.2236H13.1927L22.2279 70.4731H17.5257L15.3753 65.2118H6.73789L4.5875 70.4731H0L9.04598 49.2236ZM13.7769 61.2372L11.0566 53.5567L8.34711 61.2372H13.7769Z" fill="white"/>
<path d="M35.6387 49.0947V66.4807H47.0357V70.4732H31.3594V49.0947H35.6387Z" fill="white"/>
<path d="M61.7311 49.0947V66.4807H73.1353V70.4732H57.459V49.0947H61.7311Z" fill="white"/>
<path d="M83.4609 70.4706V49.1064H99.166V53.099H87.7366V57.6507L97.0837 57.6793V61.654L87.7366 61.6253V66.4852H99.1373V70.4778L83.4609 70.4706Z" fill="white"/>
<path d="M110.48 49.2236H119.799C122.408 49.2236 124.39 49.9225 125.755 51.288C126.924 52.46 127.508 54.0118 127.508 55.9651V56.0225C127.508 59.3269 125.716 61.3984 123.136 62.3625L128.408 70.4731H122.82L118.519 62.6349H114.986V70.4731H110.48V49.2236ZM119.53 59.1405C121.752 59.1405 122.978 58.0044 122.978 56.2733V56.2017C122.978 54.252 121.652 53.295 119.444 53.295H114.968V59.1513L119.53 59.1405Z" fill="white"/>
<path d="M138.311 70.4732V49.0947H139.744L149.005 59.6424L158.284 49.0947H159.718V70.4732H155.428V58.0726L149.012 65.2012L142.601 58.0726V70.4732H138.311Z" fill="white"/>
<path d="M178.472 49.2236H182.618L191.654 70.4731H186.951L184.801 65.2118H176.164L174.013 70.4731H169.426L178.472 49.2236ZM183.203 61.2372L180.482 53.5567L177.773 61.2372H183.203Z" fill="white"/>
<path d="M200.744 70.4732V49.0947H202.178L215.553 62.4917V49.0947H219.854V70.4732H218.288L205.027 57.2125V70.4732H200.744Z" fill="white"/>
<path d="M245.051 64.7757C245.051 66.8738 244.425 68.5425 243.174 69.7817C241.922 71.021 240.235 71.6393 238.112 71.6365C236.97 71.6069 235.837 71.4378 234.737 71.1329C233.776 70.8538 232.784 70.6945 231.784 70.6587C231.722 68.8684 231.594 67.0766 231.4 65.2834C231.4 65.1114 231.561 65.0275 231.877 65.0275C231.967 65.0121 232.059 65.0296 232.136 65.0767C232.214 65.1238 232.272 65.1972 232.299 65.2834C232.861 67.2417 233.594 68.6222 234.497 69.4251C235.387 70.2265 236.64 70.6252 238.247 70.6252C238.794 70.6596 239.342 70.5788 239.855 70.3878C240.368 70.1969 240.835 69.9003 241.225 69.5174C241.93 68.7831 242.284 67.7466 242.284 66.4206C242.273 65.543 241.945 64.6986 241.36 64.0414C240.744 63.3084 239.436 62.3615 237.437 61.2006C235.134 59.883 233.628 58.764 232.919 57.8436C232.227 56.9747 231.852 55.8976 231.856 54.7888C231.844 53.9707 232.009 53.1595 232.339 52.4102C232.669 51.6609 233.158 50.991 233.771 50.4458C235.093 49.2408 236.839 48.6017 238.631 48.6666C239.492 48.6808 240.35 48.7806 241.191 48.9645C241.961 49.1307 242.745 49.222 243.533 49.2373C243.659 51.092 243.828 52.7257 244.039 54.1384C244.039 54.3063 243.904 54.3902 243.617 54.3902C243.33 54.3902 243.157 54.3063 243.128 54.1384C242.779 52.5579 242.247 51.4193 241.533 50.7227C241.136 50.3608 240.67 50.0818 240.163 49.9023C239.656 49.7228 239.118 49.6465 238.58 49.6779C238.06 49.6513 237.541 49.7302 237.053 49.9098C236.565 50.0895 236.118 50.3661 235.741 50.7227C235.381 51.0945 235.101 51.5357 234.919 52.0193C234.737 52.5029 234.656 53.0184 234.682 53.5342C234.702 54.3331 235.017 55.0968 235.568 55.6784C236.159 56.3582 237.437 57.2674 239.403 58.4059C241.731 59.7515 243.256 60.8789 243.975 61.788C244.676 62.6279 245.059 63.6846 245.06 64.7757" fill="white"/>
<path d="M262.82 64.3966C262.849 65.3555 262.676 66.3097 262.313 67.1984C261.949 68.0871 261.404 68.8907 260.711 69.5579C259.993 70.2412 259.146 70.7745 258.217 71.1262C257.289 71.4779 256.3 71.6409 255.307 71.6056C254.182 71.6365 253.067 71.3869 252.063 70.8796V75.7556C252.063 76.7795 252.198 77.4341 252.46 77.7866C252.721 78.139 253.303 78.332 254.227 78.4495C254.396 78.4495 254.48 78.5964 254.48 78.8692C254.48 79.1419 254.396 79.2888 254.227 79.2888C253.805 79.2888 253.232 79.2552 252.54 79.1881C251.848 79.1209 251.173 79.0958 250.667 79.0958C250.161 79.0958 249.498 79.1251 248.743 79.1881C248.065 79.2552 247.503 79.2888 247.056 79.2888C246.887 79.2888 246.803 79.1419 246.803 78.8692C246.803 78.5964 246.887 78.4495 247.056 78.4495C247.959 78.332 248.545 78.1139 248.815 77.7866C249.085 77.4592 249.237 76.7837 249.237 75.7598V61.7572C249.237 60.9179 249.127 60.3598 248.912 60.0787C248.697 59.7976 248.207 59.6591 247.452 59.5584C247.288 59.5584 247.199 59.4157 247.199 59.1388C247.199 58.8618 247.288 58.7485 247.452 58.7485C248.341 58.5444 249.207 58.2534 250.038 57.8799C250.538 57.6735 251.002 57.3903 251.413 57.0407C251.453 56.9877 251.503 56.9433 251.56 56.9101C251.617 56.877 251.681 56.8557 251.747 56.8477C252.046 56.8477 252.169 56.9316 252.169 57.1036L252.042 59.0926C252.631 58.4874 253.313 57.979 254.063 57.5862C254.655 57.2293 255.325 57.0192 256.016 56.9735C258.105 56.9735 259.759 57.6519 260.977 59.0087C262.194 60.3654 262.803 62.1544 262.803 64.3756M259.593 64.342C259.593 62.5824 259.209 61.2089 258.441 60.2214C258.062 59.7353 257.571 59.3473 257.009 59.0902C256.448 58.833 255.832 58.7144 255.214 58.7443C254.667 58.7386 254.125 58.8638 253.637 59.1094C253.033 59.4648 252.494 59.9188 252.042 60.4522V68.1983C252.045 68.5297 252.129 68.8555 252.286 69.1477C252.444 69.44 252.669 69.6901 252.945 69.8768C253.582 70.3442 254.359 70.585 255.151 70.5607C255.794 70.591 256.434 70.4582 257.011 70.1749C257.588 69.8915 258.083 69.467 258.45 68.941C259.215 67.8584 259.596 66.3198 259.593 64.3252" fill="white"/>
<path d="M273.065 70.6831C273.065 70.9768 272.981 71.1237 272.812 71.1237C272.39 71.1237 271.82 71.0943 271.124 71.0314C270.365 70.9684 269.724 70.9348 269.209 70.9348C268.695 70.9348 268.049 70.9684 267.311 71.0314C266.64 71.0943 266.092 71.1237 265.657 71.1237C265.489 71.1237 265.404 70.9768 265.404 70.6831C265.404 70.4187 265.489 70.2635 265.657 70.2635C266.556 70.1502 267.138 69.9361 267.395 69.6172C267.653 69.2983 267.788 68.6269 267.788 67.5989V61.7494C267.788 60.9102 267.678 60.3521 267.459 60.0919C267.239 59.8318 266.771 59.6723 266.037 59.5716C265.868 59.5716 265.784 59.4289 265.784 59.152C265.784 58.8751 265.868 58.7617 266.037 58.7617C266.97 58.5378 267.882 58.2346 268.762 57.8554C269.25 57.6721 269.7 57.4019 270.091 57.0581C270.131 57.0022 270.184 56.9559 270.244 56.9225C270.305 56.8891 270.372 56.8695 270.441 56.8651C270.736 56.8651 270.863 56.949 270.863 57.121C270.694 59.4793 270.61 61.313 270.61 62.6222V67.5863C270.61 68.6186 270.741 69.2941 270.998 69.6089C271.255 69.9236 271.842 70.1418 272.774 70.2551C272.943 70.2802 273.027 70.4187 273.027 70.6747M270.8 51.5611C270.801 51.8888 270.705 52.2096 270.523 52.4828C270.341 52.7559 270.082 52.9692 269.778 53.0953C269.474 53.2215 269.139 53.2549 268.815 53.1914C268.492 53.1279 268.195 52.9703 267.962 52.7385C267.729 52.5068 267.571 52.2115 267.507 51.89C267.443 51.5685 267.477 51.2354 267.604 50.9329C267.731 50.6305 267.945 50.3724 268.219 50.1914C268.494 50.0103 268.817 49.9146 269.146 49.9162C269.363 49.9127 269.578 49.953 269.779 50.0344C269.98 50.1159 270.162 50.237 270.315 50.3904C270.472 50.5418 270.597 50.7239 270.68 50.9254C270.763 51.1268 270.804 51.3433 270.8 51.5611Z" fill="white"/>
<path d="M292.502 70.6832C292.502 70.977 292.417 71.128 292.248 71.128C291.728 71.1217 291.209 71.0895 290.692 71.0315C290.013 70.9686 289.426 70.935 288.899 70.935C288.372 70.935 287.764 70.9686 287.077 71.0315C286.389 71.0945 285.929 71.128 285.507 71.128C285.339 71.128 285.254 70.977 285.254 70.6832C285.254 70.3895 285.339 70.2636 285.507 70.2636C286.237 70.1797 286.718 69.9783 286.946 69.6468C287.174 69.3153 287.288 68.6397 287.288 67.5948V62.3035C287.288 61.1257 287.054 60.2613 286.587 59.7102C286.312 59.4219 285.975 59.1987 285.601 59.0571C285.227 58.9154 284.826 58.859 284.428 58.892C283.865 58.8805 283.308 58.9983 282.799 59.2361C282.221 59.5509 281.706 59.9692 281.281 60.4697V67.6032C281.281 68.6481 281.394 69.3279 281.622 69.6552C281.85 69.9825 282.331 70.1881 283.061 70.272C283.23 70.2972 283.314 70.4357 283.314 70.6916C283.314 70.9476 283.23 71.1364 283.061 71.1364C282.639 71.1364 282.095 71.1028 281.47 71.0399C280.783 70.977 280.18 70.9434 279.661 70.9434C279.142 70.9434 278.555 70.977 277.881 71.0399C277.206 71.1028 276.725 71.1364 276.29 71.1364C276.121 71.1364 276.037 70.9854 276.037 70.6916C276.037 70.3979 276.121 70.272 276.29 70.272C277.201 70.1587 277.788 69.9405 278.053 69.6174C278.319 69.2943 278.454 68.6271 278.454 67.6074V61.7496C278.454 60.9103 278.345 60.3523 278.125 60.0921C277.906 59.8319 277.425 59.6725 276.674 59.5718C276.501 59.5718 276.417 59.4291 276.417 59.1522C276.417 58.8752 276.501 58.7619 276.674 58.7619C277.575 58.5519 278.453 58.2525 279.294 57.8681C279.778 57.6775 280.225 57.4034 280.614 57.0583C280.654 57.0019 280.706 56.9553 280.767 56.9219C280.828 56.8884 280.895 56.8691 280.964 56.8652C281.259 56.8652 281.386 56.9492 281.386 57.1212L281.26 59.1102C282.787 57.6919 284.211 56.9827 285.533 56.9827C286.971 56.9827 288.098 57.4023 288.907 58.2164C289.323 58.6608 289.644 59.1835 289.853 59.7536C290.061 60.3237 290.153 60.9296 290.122 61.5356V67.5781C290.122 68.6103 290.253 69.2859 290.51 69.6006C290.768 69.9153 291.354 70.1335 292.253 70.2468C292.421 70.272 292.506 70.4105 292.506 70.6664" fill="white"/>
<path d="M312.429 70.6845C312.429 70.9782 312.345 71.1293 312.176 71.1293C311.754 71.1293 311.206 71.0957 310.54 71.0328C309.806 70.9698 309.181 70.9363 308.662 70.9363C308.144 70.9363 307.494 70.9698 306.709 71.0328C305.925 71.0957 305.397 71.1293 304.975 71.1293C304.807 71.1293 304.722 70.9782 304.722 70.6845C304.722 70.3908 304.807 70.2649 304.975 70.2649C305.181 70.2536 305.382 70.2007 305.566 70.1096C305.628 70.0594 305.676 69.9947 305.706 69.9215C305.736 69.8483 305.747 69.7687 305.739 69.69C305.739 69.3767 305.23 68.6773 304.212 67.5919L301.681 64.7763C301.568 64.6705 301.436 64.5882 301.291 64.5341C301.146 64.4801 300.992 64.4554 300.837 64.4616V67.5919C300.788 68.2672 300.905 68.9443 301.179 69.5641C301.318 69.7729 301.506 69.9453 301.726 70.0665C301.946 70.1878 302.193 70.2544 302.444 70.2607C302.613 70.2859 302.698 70.4243 302.698 70.6803C302.698 70.9363 302.613 71.1251 302.444 71.1251C301.989 71.1251 301.398 71.0915 300.664 71.0286C299.93 70.9656 299.424 70.9321 299.023 70.9321C298.623 70.9321 298.019 70.9656 297.374 71.0286C296.729 71.0915 296.252 71.1251 295.851 71.1251C295.678 71.1251 295.594 70.974 295.594 70.6803C295.594 70.3866 295.678 70.2607 295.851 70.2607C296.741 70.1684 297.315 69.9628 297.581 69.6397C297.846 69.3166 298.002 68.6368 298.002 67.5919V52.9053C298.002 52.0661 297.897 51.4954 297.69 51.2269C297.484 50.9583 297.003 50.8072 296.252 50.7065C296.083 50.6814 295.999 50.5513 295.999 50.2869C295.999 50.0226 296.083 49.8673 296.252 49.8673C298.063 49.4449 299.399 48.8854 300.259 48.1888C300.375 48.0813 300.523 48.0149 300.681 48C300.972 48 301.103 48.0839 301.103 48.2518C300.934 49.9834 300.85 51.8199 300.85 53.7613V63.5552C301.179 63.574 301.504 63.4675 301.757 63.2573L304.123 61.0207C304.195 60.9452 304.322 60.8361 304.49 60.6892C305.368 59.8919 305.807 59.3003 305.807 58.9142C305.807 58.6373 305.385 58.4443 304.541 58.3394C304.372 58.3184 304.288 58.1757 304.288 57.9198C304.288 57.6638 304.372 57.5001 304.541 57.5001C304.988 57.5001 305.549 57.5337 306.228 57.5966C306.908 57.6596 307.372 57.689 307.785 57.689C308.184 57.6839 308.583 57.6573 308.979 57.6092C309.506 57.5416 310.037 57.5052 310.569 57.5001C310.738 57.5001 310.822 57.647 310.822 57.9198C310.822 58.1925 310.738 58.3394 310.569 58.3394C309.868 58.4053 309.183 58.5898 308.544 58.8849C307.691 59.3565 306.902 59.9362 306.199 60.6095L303.465 63.0181L307.591 67.5877C308.237 68.3437 308.985 69.0074 309.814 69.5599C310.545 69.9585 311.353 70.1961 312.185 70.2565C312.353 70.2817 312.438 70.4201 312.438 70.6761" fill="white"/>
<path d="M325.34 67.0555C325.347 67.6752 325.213 68.2886 324.95 68.8501C324.686 69.4116 324.299 69.9069 323.817 70.2992C322.796 71.177 321.483 71.6452 320.134 71.6126C319.342 71.5758 318.555 71.4648 317.784 71.2811C317.253 71.1579 316.713 71.0779 316.169 71.0419C316.08 70.3034 315.886 69.183 315.578 67.685C315.578 67.5255 315.734 67.4458 316.042 67.4458C316.35 67.4458 316.464 67.5297 316.502 67.6975C316.765 68.5076 317.27 69.2188 317.949 69.7369C318.563 70.2798 319.351 70.5889 320.172 70.6097C320.509 70.6295 320.846 70.5821 321.164 70.4704C321.482 70.3588 321.774 70.185 322.024 69.9593C322.252 69.7168 322.428 69.4307 322.541 69.1183C322.654 68.8059 322.702 68.4738 322.682 68.1423C322.683 67.8985 322.635 67.6569 322.542 67.4315C322.448 67.2061 322.311 67.0013 322.138 66.8289C321.425 66.2377 320.622 65.7631 319.759 65.4232C318.158 64.6931 317.102 64.0077 316.591 63.3671C316.293 62.9848 316.073 62.5476 315.946 62.0807C315.819 61.6138 315.785 61.1265 315.848 60.6467C315.911 60.167 316.068 59.7043 316.312 59.2854C316.555 58.8665 316.879 58.4996 317.265 58.2058C318.215 57.4039 319.424 56.9703 320.67 56.9847C321.45 57.0122 322.226 57.1077 322.99 57.2701C323.346 57.3489 323.706 57.4022 324.07 57.4295C324.099 58.6884 324.171 59.7332 324.276 60.606C324.276 60.7655 324.12 60.8452 323.812 60.8452C323.505 60.8452 323.391 60.7613 323.37 60.5892C323.284 59.8902 322.98 59.2355 322.501 58.7177C322.287 58.4857 322.026 58.3013 321.735 58.1769C321.444 58.0525 321.13 57.9909 320.813 57.996C319.168 57.996 318.345 58.7135 318.345 60.1486C318.354 60.6551 318.563 61.1376 318.928 61.4914C319.688 62.1447 320.541 62.6834 321.459 63.0901C323.019 63.8678 324.047 64.542 324.542 65.1127C325.023 65.64 325.29 66.3267 325.289 67.0387" fill="white"/>
</svg>
