<svg width="28" height="16" viewBox="0 0 28 16" fill="none" xmlns="http://www.w3.org/2000/svg">
<path d="M26.3597 8.2546C26.4093 8.37623 26.4344 8.5058 26.4336 8.63641C26.4314 8.85944 26.358 9.07646 26.2234 9.25822C26.1114 9.4044 25.965 9.52309 25.7962 9.60461C25.6273 9.68613 25.4408 9.72817 25.2518 9.7273H2.61543C2.42643 9.72817 2.23989 9.68613 2.07104 9.60461C1.90219 9.52309 1.75581 9.4044 1.64384 9.25822C1.5092 9.07646 1.43583 8.85944 1.43361 8.63641C1.43281 8.5058 1.45788 8.37623 1.50747 8.2546L3.88247 2.41835C4.06095 1.99469 4.36852 1.63264 4.76491 1.3796C5.16131 1.12656 5.62806 0.994317 6.10406 1.00019H21.7631C22.2391 0.994317 22.7059 1.12656 23.1023 1.3796C23.4987 1.63264 23.8062 1.99469 23.9847 2.41835L26.3597 8.2546Z" stroke="white" stroke-width="1.5" stroke-miterlimit="10"/>
<path d="M1.43359 8.63672V14.0003" stroke="white" stroke-width="1.5" stroke-miterlimit="10"/>
<path d="M26.4336 8.63672L26.4346 14.0003" stroke="white" stroke-width="1.5" stroke-miterlimit="10"/>
<path d="M1.43359 13.9092C1.43581 14.1322 1.50918 14.3492 1.64382 14.531C1.75579 14.6772 1.90217 14.7959 2.07102 14.8774C2.23987 14.9589 2.42641 15.0009 2.61541 15.0001H25.2517C25.4407 15.0009 25.6273 14.9589 25.7961 14.8774C25.965 14.7959 26.1114 14.6772 26.2233 14.531C26.358 14.3492 26.4313 14.1322 26.4336 13.9092" stroke="white" stroke-width="1.5" stroke-miterlimit="10"/>
</svg>
