<svg width="80" height="80" viewBox="0 0 80 80" fill="none" xmlns="http://www.w3.org/2000/svg">
<path d="M29.48 38.5547C29.226 38.5552 28.978 38.631 28.7671 38.7724C28.5563 38.9139 28.3921 39.1146 28.2953 39.3494C28.1985 39.5841 28.1734 39.8423 28.2232 40.0912C28.2731 40.3402 28.3956 40.5688 28.5754 40.7481C28.7551 40.9275 28.9839 41.0496 29.233 41.0989C29.4821 41.1483 29.7402 41.1227 29.9747 41.0254C30.2092 40.9281 30.4097 40.7635 30.5507 40.5523C30.6917 40.3412 30.767 40.093 30.767 39.839C30.767 39.6702 30.7336 39.5029 30.6689 39.3469C30.6042 39.1909 30.5094 39.0492 30.3899 38.9299C30.2703 38.8106 30.1284 38.7161 29.9723 38.6517C29.8161 38.5873 29.6488 38.5543 29.48 38.5547Z" fill="white"/>
<path d="M42.1805 38.4199C41.9066 38.4199 41.6389 38.5011 41.4112 38.6533C41.1835 38.8054 41.0061 39.0216 40.9013 39.2746C40.7965 39.5276 40.7691 39.806 40.8225 40.0746C40.8759 40.3432 41.0078 40.5899 41.2014 40.7835C41.3951 40.9772 41.6418 41.109 41.9103 41.1625C42.1789 41.2159 42.4573 41.1885 42.7103 41.0837C42.9633 40.9789 43.1796 40.8014 43.3317 40.5737C43.4838 40.346 43.565 40.0783 43.565 39.8045C43.565 39.4373 43.4192 39.0851 43.1595 38.8255C42.8999 38.5658 42.5477 38.4199 42.1805 38.4199Z" fill="white"/>
<path d="M53.6723 25.7773H26.329C25.6732 25.777 25.0237 25.9059 24.4177 26.1566C23.8117 26.4073 23.261 26.775 22.7971 27.2386C22.3333 27.7023 21.9653 28.2527 21.7143 28.8586C21.4632 29.4645 21.334 30.1139 21.334 30.7697V46.9995C21.334 48.3243 21.8602 49.5948 22.797 50.5315C23.7337 51.4683 25.0042 51.9945 26.329 51.9945H35.9867L39.2701 56.2718C39.2701 56.2718 39.4969 56.9416 40.0455 56.9416C40.594 56.9416 40.8182 56.2718 40.8182 56.2718L44.1042 51.9945H53.6723C54.9971 51.9945 56.2676 51.4683 57.2043 50.5315C58.1411 49.5948 58.6673 48.3243 58.6673 46.9995V30.7697C58.6673 30.1139 58.5381 29.4645 58.287 28.8586C58.036 28.2527 57.668 27.7023 57.2041 27.2386C56.7403 26.775 56.1896 26.4073 55.5836 26.1566C54.9776 25.9059 54.3281 25.777 53.6723 25.7773ZM33.062 40.1215C33.0461 43.0885 29.979 43.1755 29.979 43.1755C29.6338 43.1748 29.2924 43.1044 28.9751 42.9684C28.6579 42.8325 28.3714 42.6338 28.1329 42.3843V42.9118H25.8991V33.7103C26.0389 33.7314 28.1329 33.7103 28.1329 33.7103V37.2337C28.6603 36.337 30.1794 36.3528 30.1794 36.3528C33.476 36.6561 33.062 40.1215 33.062 40.1215ZM37.0047 36.6298V42.9381H34.8158V36.6931C34.8158 35.8438 33.7608 35.6091 33.7608 35.6091V33.4044C37.2473 33.5468 37.0047 36.6298 37.0047 36.6298ZM42.187 43.1781C40.1615 43.1781 38.5211 41.667 38.5211 39.805C38.5211 37.9431 40.1615 36.4293 42.187 36.4293C44.2124 36.4293 45.8528 37.9405 45.8528 39.805C45.8528 41.6696 44.2045 43.1781 42.179 43.1781H42.187ZM54.1655 43.1781C54.1655 43.1781 54.1971 46.3824 50.9401 46.3824H49.9511V44.3069H50.5471C50.5471 44.3069 51.9159 44.4335 51.9 42.3236C51.9 42.3236 51.6363 43.1781 49.7137 43.1781C49.7137 43.1781 46.9921 42.983 46.9921 40.3272V39.3198C46.9921 39.3198 47.0554 36.5665 50.0434 36.3476C50.406 36.3227 50.7692 36.3871 51.1012 36.5351C51.4331 36.6832 51.7237 36.9104 51.9475 37.1968V36.519H54.147L54.1655 43.1781Z" fill="white"/>
<path d="M50.683 38.4531C50.4154 38.4531 50.1539 38.5325 49.9314 38.6811C49.7089 38.8298 49.5355 39.0411 49.4331 39.2883C49.3307 39.5355 49.3039 39.8076 49.3561 40.07C49.4083 40.3324 49.5371 40.5735 49.7263 40.7627C49.9156 40.9519 50.1566 41.0808 50.4191 41.133C50.6815 41.1852 50.9535 41.1584 51.2008 41.056C51.448 40.9536 51.6593 40.7802 51.8079 40.5577C51.9566 40.3352 52.0359 40.0736 52.0359 39.806C52.0359 39.4472 51.8934 39.1031 51.6397 38.8494C51.386 38.5957 51.0418 38.4531 50.683 38.4531Z" fill="white"/>
</svg>
