<svg width="80" height="80" viewBox="0 0 80 80" fill="none" xmlns="http://www.w3.org/2000/svg">
<path fill-rule="evenodd" clip-rule="evenodd" d="M57.4565 32.1898C56.7673 29.7113 55.4806 28.7571 53.1098 28.4145C51.7495 28.2332 45.2002 28 39.9993 28C34.7998 28 28.2505 28.2332 26.8902 28.4145C24.5224 28.7571 23.2297 29.7156 22.5495 32.1898C22.3153 33.016 22 37.5742 22 39.3086V39.6914C22 41.4301 22.3153 45.9855 22.5495 46.8145C23.2297 49.2887 24.5224 50.2415 26.8902 50.584C28.2505 50.7668 34.8073 50.9957 40.0113 50.9957L39.9887 51C45.1927 51 51.748 50.7668 53.1098 50.584C55.4806 50.2415 56.7673 49.2887 57.4565 46.8145C57.6832 45.9855 58 41.4301 58 39.6914V39.3086C58 37.5742 57.6832 33.016 57.4565 32.1898ZM35.6826 43.6567V35.3419L44.3144 39.4036L35.6826 43.6567Z" fill="white"/>
</svg>
