<svg width="45" height="45" viewBox="0 0 45 45" fill="none" xmlns="http://www.w3.org/2000/svg">
<mask id="mask0_871_12088" style="mask-type:alpha" maskUnits="userSpaceOnUse" x="0" y="0" width="45" height="45">
<rect width="45" height="45" fill="black"/>
</mask>
<g mask="url(#mask0_871_12088)">
<path d="M11 29C10.5897 28.9941 10.1847 28.8968 9.80941 28.714C9.43416 28.5312 9.09643 28.2667 8.81657 27.9364C8.53671 27.6062 8.32052 27.217 8.18102 26.7923C8.04152 26.3677 7.98161 25.9163 8.0049 25.4655V24.2956C8.0049 23.4215 8.32045 22.5833 8.88214 21.9653C9.44383 21.3472 10.2056 21 11 21C11.7944 21 12.5562 21.3472 13.1179 21.9653C13.6796 22.5833 13.9951 23.4215 13.9951 24.2956V25.4655C14.0184 25.9163 13.9585 26.3677 13.819 26.7923C13.6795 27.217 13.4633 27.6062 13.1834 27.9364C12.9036 28.2667 12.5658 28.5312 12.1906 28.714C11.8153 28.8968 11.4103 28.9941 11 29V29Z" stroke="#474747" stroke-width="2" stroke-miterlimit="10"/>
<path d="M5 42L6.71271 35.3333C7.22653 33.25 8.25416 32 10.1381 32H11.8509L17.8454 38.6667H22.9835C22.9835 38.6667 23.3689 42 20.4144 42H15.2763L10.9945 37" stroke="#474747" stroke-width="2" stroke-miterlimit="10"/>
<path d="M12 42.998H40" stroke="#474747" stroke-width="2" stroke-linejoin="round"/>
<path d="M17 3V18.3333C17 18.8856 17.4477 19.3333 18 19.3333H20C20.5523 19.3333 21 19.781 21 20.3333V23.904C21 24.951 22.405 25.294 22.8875 24.3648L25.22 19.8725C25.3921 19.5412 25.7343 19.3333 26.1075 19.3333H38C38.5523 19.3333 39 18.8856 39 18.3333V3C39 2.44772 38.5523 2 38 2H18C17.4477 2 17 2.44772 17 3Z" stroke="#474747" stroke-width="2" stroke-linecap="round"/>
<path d="M23 10.4444L26.2727 14L32 6" stroke="#474747" stroke-width="2" stroke-miterlimit="10"/>
</g>
</svg>
