<svg width="45" height="45" viewBox="0 0 45 45" fill="none" xmlns="http://www.w3.org/2000/svg">
<mask id="mask0_871_12074" style="mask-type:alpha" maskUnits="userSpaceOnUse" x="0" y="0" width="45" height="45">
<rect width="45" height="45" fill="black"/>
</mask>
<g mask="url(#mask0_871_12074)">
<path d="M33 16.5V6.75C33 6.55109 32.9243 6.36032 32.7895 6.21967C32.6547 6.07902 32.4719 6 32.2812 6H14.3125L10 10.5V38.25C10 38.4489 10.0757 38.6397 10.2105 38.7803C10.3453 38.921 10.5281 39 10.7188 39H32.2812C32.4719 39 32.6547 38.921 32.7895 38.7803C32.9243 38.6397 33 38.4489 33 38.25V29.25" stroke="#474747" stroke-width="2" stroke-miterlimit="10"/>
<path d="M11 11H15V7" stroke="#474747" stroke-width="2" stroke-miterlimit="10"/>
<path d="M37.3557 20.6702L34.8287 23.1972L32.8028 21.1713L35.3298 18.6443C34.3204 17.6278 32.1012 17.8282 30.7769 19.1454C30.246 19.6791 29.8647 20.343 29.6713 21.0704C29.4778 21.7979 29.4789 22.5634 29.6744 23.2903L21.6281 31.3367C21.2259 31.7393 21 32.2852 21 32.8543C21 33.4234 21.2259 33.9692 21.6281 34.3719C22.0308 34.7741 22.5766 35 23.1457 35C23.7148 35 24.2607 34.7741 24.6633 34.3719L32.7097 26.3256C33.4366 26.5211 34.2021 26.5222 34.9296 26.3287C35.657 26.1353 36.3209 25.754 36.8546 25.2231C38.1718 23.8988 38.3722 21.6796 37.3557 20.6702Z" stroke="#474747" stroke-width="2" stroke-miterlimit="10"/>
<path d="M15 16H26" stroke="#474747" stroke-width="2" stroke-miterlimit="10"/>
<path d="M15 20H26" stroke="#474747" stroke-width="2" stroke-miterlimit="10"/>
<path d="M15 24H22" stroke="#474747" stroke-width="2" stroke-miterlimit="10"/>
</g>
</svg>
