<svg width="16" height="23" viewBox="0 0 16 23" fill="none" xmlns="http://www.w3.org/2000/svg">
<path d="M14.2745 4.86341C13.8493 4.05854 13.3177 3.36098 12.6266 2.77073C9.96857 0.409756 6.03473 0.409756 3.37672 2.77073C0.931355 4.86341 0.293434 8.40488 1.83508 11.2488C2.84512 13.2341 8.00165 19.7268 8.00165 23C8.00165 19.6732 13.1582 13.1805 14.1682 11.2488C15.2314 9.26342 15.2846 6.84878 14.2745 4.86341Z" stroke="white" stroke-width="2" stroke-miterlimit="10"/>
<path d="M8 10C9.10457 10 10 9.10457 10 8C10 6.89543 9.10457 6 8 6C6.89543 6 6 6.89543 6 8C6 9.10457 6.89543 10 8 10Z" fill="white"/>
</svg>
