<svg width="45" height="45" viewBox="0 0 45 45" fill="none" xmlns="http://www.w3.org/2000/svg">
<mask id="mask0_871_12060" style="mask-type:alpha" maskUnits="userSpaceOnUse" x="0" y="0" width="45" height="45">
<rect width="45" height="45" fill="black"/>
</mask>
<g mask="url(#mask0_871_12060)">
<path d="M12.5263 29H7V6H37V29H31.4737" stroke="#474747" stroke-width="2" stroke-miterlimit="10"/>
<path d="M22 32.9998C25.866 32.9998 29 29.8659 29 25.9999C29 22.134 25.866 19 22 19C18.134 19 15 22.134 15 25.9999C15 29.8659 18.134 32.9998 22 32.9998Z" stroke="#474747" stroke-width="2" stroke-miterlimit="10"/>
<path d="M25 33V40L22 37.9L19 40V33" stroke="#474747" stroke-width="2" stroke-miterlimit="10"/>
<path d="M19 26.2857L21.25 28L25 24" stroke="#474747" stroke-width="2" stroke-miterlimit="10"/>
<path d="M16 11H28" stroke="#474747" stroke-width="2" stroke-miterlimit="10"/>
<path d="M18 15H26" stroke="#474747" stroke-width="2" stroke-miterlimit="10"/>
</g>
</svg>
