<svg width="590" height="32" viewBox="0 0 590 32" fill="none" xmlns="http://www.w3.org/2000/svg">
<path d="M9.07498 1.40234H13.235L22.2992 22.7199H17.5819L15.4246 17.4418H6.75949L4.60221 22.7199H0L9.07498 1.40234ZM13.821 13.4544L11.0921 5.74928L8.37387 13.4544H13.821Z" fill="#474747"/>
<path d="M35.7578 1.27344V18.7151H47.1915V22.7205H31.4648V1.27344H35.7578Z" fill="#474747"/>
<path d="M61.9342 1.27344V18.7151H73.3751V22.7205H57.6484V1.27344H61.9342Z" fill="#474747"/>
<path d="M83.7344 22.7197V1.28711H99.4898V5.29247H88.0238V9.85873L97.4008 9.88749V13.8749L88.0238 13.8461V18.7216H99.461V22.7269L83.7344 22.7197Z" fill="#474747"/>
<path d="M110.832 1.40234H120.18C122.798 1.40234 124.786 2.10345 126.156 3.47333C127.328 4.64905 127.914 6.2059 127.914 8.16544V8.22297C127.914 11.538 126.116 13.6162 123.528 14.5834L128.817 22.7199H123.211L118.897 14.8566H115.352V22.7199H110.832V1.40234ZM119.911 11.351C122.14 11.351 123.369 10.2113 123.369 8.47464V8.40274C123.369 6.4468 122.039 5.4868 119.824 5.4868H115.334V11.3618L119.911 11.351Z" fill="#474747"/>
<path d="M138.746 22.7205V1.27344H140.184L149.475 11.8549L158.784 1.27344H160.222V22.7205H155.918V10.2801L149.482 17.4315L143.05 10.2801V22.7205H138.746Z" fill="#474747"/>
<path d="M179.044 1.40234H183.204L192.268 22.7199H187.551L185.393 17.4418H176.728L174.571 22.7199H169.969L179.044 1.40234ZM183.79 13.4544L181.061 5.74928L178.343 13.4544H183.79Z" fill="#474747"/>
<path d="M201.391 22.7205V1.27344H202.829L216.247 14.7133V1.27344H220.562V22.7205H218.99L205.687 9.41719V22.7205H201.391Z" fill="#474747"/>
<path d="M273.046 1.22266H277.193L286.228 22.4721H281.526L279.375 17.2108H270.738L268.588 22.4721H264L273.046 1.22266ZM277.777 13.2362L275.057 5.5557L272.347 13.2362H277.777Z" fill="#474747"/>
<path d="M299.639 1.09375V18.4797H311.036V22.4722H295.359V1.09375H299.639Z" fill="#474747"/>
<path d="M325.731 1.09375V18.4797H337.135V22.4722H321.459V1.09375H325.731Z" fill="#474747"/>
<path d="M347.461 22.4696V1.10547H363.166V5.09803H351.737V9.6497L361.084 9.67836V13.653L351.737 13.6243V18.4842H363.137V22.4768L347.461 22.4696Z" fill="#474747"/>
<path d="M374.48 1.22266H383.799C386.408 1.22266 388.39 1.92153 389.755 3.28703C390.924 4.45899 391.508 6.01086 391.508 7.96414V8.02148C391.508 11.3259 389.716 13.3975 387.136 14.3616L392.408 22.4721H386.82L382.519 14.6339H378.986V22.4721H374.48V1.22266ZM383.53 11.1395C385.752 11.1395 386.978 10.0034 386.978 8.27236V8.20068C386.978 6.25099 385.652 5.29406 383.444 5.29406H378.968V11.1503L383.53 11.1395Z" fill="#474747"/>
<path d="M402.311 22.4722V1.09375H403.744L413.005 11.6414L422.284 1.09375H423.718V22.4722H419.428V10.0716L413.012 17.2002L406.601 10.0716V22.4722H402.311Z" fill="#474747"/>
<path d="M442.472 1.22266H446.618L455.654 22.4721H450.951L448.801 17.2108H440.164L438.013 22.4721H433.426L442.472 1.22266ZM447.203 13.2362L444.482 5.5557L441.773 13.2362H447.203Z" fill="#474747"/>
<path d="M464.744 22.4722V1.09375H466.178L479.553 14.4907V1.09375H483.854V22.4722H482.288L469.027 9.21148V22.4722H464.744Z" fill="#474747"/>
<path d="M509.051 16.7757C509.051 18.8738 508.425 20.5425 507.174 21.7817C505.922 23.021 504.235 23.6393 502.112 23.6365C500.97 23.6069 499.837 23.4378 498.737 23.1329C497.776 22.8538 496.784 22.6945 495.784 22.6587C495.722 20.8684 495.594 19.0766 495.4 17.2834C495.4 17.1114 495.561 17.0275 495.877 17.0275C495.967 17.0121 496.059 17.0296 496.136 17.0767C496.214 17.1238 496.272 17.1972 496.299 17.2834C496.861 19.2417 497.594 20.6222 498.497 21.4251C499.387 22.2265 500.64 22.6252 502.247 22.6252C502.794 22.6596 503.342 22.5788 503.855 22.3878C504.368 22.1969 504.835 21.9003 505.225 21.5174C505.93 20.783 506.284 19.7466 506.284 18.4206C506.273 17.543 505.945 16.6986 505.36 16.0414C504.744 15.3084 503.436 14.3615 501.437 13.2006C499.134 11.883 497.628 10.764 496.919 9.84364C496.227 8.97475 495.852 7.89755 495.856 6.78883C495.844 5.9707 496.009 5.15951 496.339 4.41021C496.669 3.6609 497.158 2.99098 497.771 2.44579C499.093 1.24078 500.839 0.601675 502.631 0.666616C503.492 0.680793 504.35 0.780595 505.191 0.96454C505.961 1.1307 506.745 1.22205 507.533 1.23729C507.659 3.092 507.828 4.7257 508.039 6.13841C508.039 6.30626 507.904 6.39019 507.617 6.39019C507.33 6.39019 507.157 6.30626 507.128 6.13841C506.779 4.55786 506.247 3.4193 505.533 2.72274C505.136 2.36077 504.67 2.08176 504.163 1.90228C503.656 1.72279 503.118 1.64648 502.58 1.67788C502.06 1.65129 501.541 1.73021 501.053 1.90984C500.565 2.08947 500.118 2.36606 499.741 2.72274C499.381 3.09445 499.101 3.53572 498.919 4.01929C498.737 4.50285 498.656 5.01843 498.682 5.53416C498.702 6.33314 499.017 7.09684 499.568 7.67841C500.159 8.35819 501.437 9.26736 503.403 10.4059C505.731 11.7515 507.256 12.8789 507.975 13.788C508.676 14.6279 509.059 15.6846 509.06 16.7757" fill="#474747"/>
<path d="M526.82 16.3966C526.849 17.3555 526.676 18.3097 526.313 19.1984C525.949 20.0871 525.404 20.8907 524.711 21.5579C523.993 22.2412 523.146 22.7745 522.217 23.1262C521.289 23.4779 520.3 23.6409 519.307 23.6056C518.182 23.6365 517.067 23.3869 516.063 22.8796V27.7556C516.063 28.7795 516.198 29.4341 516.46 29.7866C516.721 30.139 517.303 30.332 518.227 30.4495C518.396 30.4495 518.48 30.5964 518.48 30.8692C518.48 31.1419 518.396 31.2888 518.227 31.2888C517.805 31.2888 517.232 31.2552 516.54 31.1881C515.848 31.1209 515.173 31.0958 514.667 31.0958C514.161 31.0958 513.498 31.1251 512.743 31.1881C512.065 31.2552 511.503 31.2888 511.056 31.2888C510.887 31.2888 510.803 31.1419 510.803 30.8692C510.803 30.5964 510.887 30.4495 511.056 30.4495C511.959 30.332 512.545 30.1139 512.815 29.7866C513.085 29.4592 513.237 28.7837 513.237 27.7598V13.7572C513.237 12.9179 513.127 12.3598 512.912 12.0787C512.697 11.7976 512.207 11.6591 511.452 11.5584C511.288 11.5584 511.199 11.4157 511.199 11.1388C511.199 10.8618 511.288 10.7485 511.452 10.7485C512.341 10.5444 513.207 10.2534 514.038 9.87991C514.538 9.67351 515.002 9.39032 515.413 9.04068C515.453 8.98773 515.503 8.94332 515.56 8.91014C515.617 8.87695 515.681 8.8557 515.747 8.84766C516.046 8.84766 516.169 8.93157 516.169 9.10362L516.042 11.0926C516.631 10.4874 517.313 9.97896 518.063 9.58617C518.655 9.22933 519.325 9.01923 520.016 8.97354C522.105 8.97354 523.759 9.65192 524.977 11.0087C526.194 12.3654 526.803 14.1544 526.803 16.3756M523.593 16.342C523.593 14.5824 523.209 13.2089 522.441 12.2214C522.062 11.7353 521.571 11.3473 521.009 11.0902C520.448 10.833 519.832 10.7144 519.214 10.7443C518.667 10.7386 518.125 10.8638 517.637 11.1094C517.033 11.4648 516.494 11.9188 516.042 12.4522V20.1983C516.045 20.5297 516.129 20.8555 516.286 21.1477C516.444 21.44 516.669 21.6901 516.945 21.8768C517.582 22.3442 518.359 22.585 519.151 22.5607C519.794 22.591 520.434 22.4582 521.011 22.1749C521.588 21.8915 522.083 21.467 522.45 20.941C523.215 19.8584 523.596 18.3198 523.593 16.3252" fill="#474747"/>
<path d="M537.065 22.6831C537.065 22.9768 536.981 23.1237 536.812 23.1237C536.39 23.1237 535.82 23.0943 535.124 23.0314C534.365 22.9684 533.724 22.9348 533.209 22.9348C532.695 22.9348 532.049 22.9684 531.311 23.0314C530.64 23.0943 530.092 23.1237 529.657 23.1237C529.489 23.1237 529.404 22.9768 529.404 22.6831C529.404 22.4187 529.489 22.2635 529.657 22.2635C530.556 22.1502 531.138 21.9361 531.395 21.6172C531.653 21.2983 531.788 20.6269 531.788 19.5989V13.7494C531.788 12.9102 531.678 12.3521 531.459 12.0919C531.239 11.8318 530.771 11.6723 530.037 11.5716C529.868 11.5716 529.784 11.4289 529.784 11.152C529.784 10.8751 529.868 10.7617 530.037 10.7617C530.97 10.5378 531.882 10.2346 532.762 9.85537C533.25 9.67209 533.7 9.40192 534.091 9.0581C534.131 9.00219 534.184 8.95588 534.244 8.9225C534.305 8.88913 534.372 8.86951 534.441 8.86508C534.736 8.86508 534.863 8.949 534.863 9.12104C534.694 11.4793 534.61 13.313 534.61 14.6222V19.5863C534.61 20.6186 534.741 21.2941 534.998 21.6089C535.255 21.9236 535.842 22.1418 536.774 22.2551C536.943 22.2802 537.027 22.4187 537.027 22.6747M534.8 3.56112C534.801 3.88881 534.705 4.20962 534.523 4.48278C534.341 4.75594 534.082 4.96916 533.778 5.09533C533.474 5.2215 533.139 5.25495 532.815 5.19142C532.492 5.1279 532.195 4.97027 531.962 4.73855C531.729 4.50683 531.571 4.21147 531.507 3.88998C531.443 3.56849 531.477 3.23538 531.604 2.93294C531.731 2.6305 531.945 2.37238 532.219 2.19135C532.494 2.01033 532.817 1.91456 533.146 1.91622C533.363 1.91275 533.578 1.95296 533.779 2.03445C533.98 2.11594 534.162 2.23702 534.315 2.39039C534.472 2.54178 534.597 2.7239 534.68 2.92536C534.763 3.12682 534.804 3.34326 534.8 3.56112" fill="#474747"/>
<path d="M556.502 22.6832C556.502 22.977 556.417 23.128 556.248 23.128C555.728 23.1217 555.209 23.0895 554.692 23.0315C554.013 22.9686 553.426 22.935 552.899 22.935C552.372 22.935 551.764 22.9686 551.077 23.0315C550.389 23.0945 549.929 23.128 549.507 23.128C549.339 23.128 549.254 22.977 549.254 22.6832C549.254 22.3895 549.339 22.2636 549.507 22.2636C550.237 22.1797 550.718 21.9783 550.946 21.6468C551.174 21.3153 551.288 20.6397 551.288 19.5948V14.3035C551.288 13.1257 551.054 12.2613 550.587 11.7102C550.312 11.4219 549.975 11.1987 549.601 11.0571C549.227 10.9154 548.826 10.859 548.428 10.892C547.865 10.8805 547.308 10.9983 546.799 11.2361C546.221 11.5509 545.706 11.9692 545.281 12.4697V19.6032C545.281 20.6481 545.394 21.3279 545.622 21.6552C545.85 21.9825 546.331 22.1881 547.061 22.272C547.23 22.2972 547.314 22.4357 547.314 22.6916C547.314 22.9476 547.23 23.1364 547.061 23.1364C546.639 23.1364 546.095 23.1028 545.47 23.0399C544.783 22.977 544.18 22.9434 543.661 22.9434C543.142 22.9434 542.555 22.977 541.881 23.0399C541.206 23.1028 540.725 23.1364 540.29 23.1364C540.121 23.1364 540.037 22.9854 540.037 22.6916C540.037 22.3979 540.121 22.272 540.29 22.272C541.201 22.1587 541.788 21.9405 542.053 21.6174C542.319 21.2943 542.454 20.6271 542.454 19.6074V13.7496C542.454 12.9103 542.345 12.3523 542.125 12.0921C541.906 11.8319 541.425 11.6725 540.674 11.5718C540.501 11.5718 540.417 11.4291 540.417 11.1522C540.417 10.8752 540.501 10.7619 540.674 10.7619C541.575 10.5519 542.453 10.2525 543.294 9.86811C543.778 9.67752 544.225 9.40336 544.614 9.05825C544.654 9.00191 544.706 8.95529 544.767 8.92186C544.828 8.88844 544.895 8.86907 544.964 8.86523C545.259 8.86523 545.386 8.94915 545.386 9.12119L545.26 11.1102C546.787 9.69188 548.211 8.98273 549.533 8.98273C550.971 8.98273 552.098 9.40234 552.907 10.2164C553.323 10.6608 553.644 11.1835 553.853 11.7536C554.061 12.3237 554.153 12.9296 554.122 13.5356V19.5781C554.122 20.6103 554.253 21.2859 554.51 21.6006C554.768 21.9153 555.354 22.1335 556.253 22.2468C556.421 22.272 556.506 22.4105 556.506 22.6664" fill="#474747"/>
<path d="M576.429 22.6845C576.429 22.9782 576.345 23.1293 576.176 23.1293C575.754 23.1293 575.206 23.0957 574.54 23.0328C573.806 22.9698 573.181 22.9363 572.662 22.9363C572.144 22.9363 571.494 22.9698 570.709 23.0328C569.925 23.0957 569.397 23.1293 568.975 23.1293C568.807 23.1293 568.722 22.9782 568.722 22.6845C568.722 22.3908 568.807 22.2649 568.975 22.2649C569.181 22.2536 569.382 22.2007 569.566 22.1096C569.628 22.0594 569.676 21.9947 569.706 21.9215C569.736 21.8483 569.747 21.7687 569.739 21.69C569.739 21.3767 569.23 20.6773 568.212 19.5919L565.681 16.7763C565.568 16.6705 565.436 16.5882 565.291 16.5341C565.146 16.4801 564.992 16.4554 564.837 16.4616V19.5919C564.788 20.2672 564.905 20.9443 565.179 21.5641C565.318 21.7729 565.506 21.9453 565.726 22.0665C565.946 22.1878 566.193 22.2544 566.444 22.2607C566.613 22.2859 566.698 22.4243 566.698 22.6803C566.698 22.9363 566.613 23.1251 566.444 23.1251C565.989 23.1251 565.398 23.0915 564.664 23.0286C563.93 22.9656 563.424 22.9321 563.023 22.9321C562.623 22.9321 562.019 22.9656 561.374 23.0286C560.729 23.0915 560.252 23.1251 559.851 23.1251C559.678 23.1251 559.594 22.974 559.594 22.6803C559.594 22.3866 559.678 22.2607 559.851 22.2607C560.741 22.1684 561.315 21.9628 561.581 21.6397C561.846 21.3166 562.002 20.6368 562.002 19.5919V4.90533C562.002 4.06609 561.897 3.49541 561.69 3.22686C561.484 2.9583 561.003 2.80724 560.252 2.70654C560.083 2.68136 559.999 2.55128 559.999 2.28692C559.999 2.02256 560.083 1.8673 560.252 1.8673C562.063 1.44489 563.399 0.885397 564.259 0.188833C564.375 0.0812674 564.523 0.0148638 564.681 0C564.972 0 565.103 0.083926 565.103 0.251773C564.934 1.98339 564.85 3.81992 564.85 5.76135V15.5552C565.179 15.574 565.504 15.4675 565.757 15.2573L568.123 13.0207C568.195 12.9452 568.322 12.8361 568.49 12.6892C569.368 11.8919 569.807 11.3003 569.807 10.9142C569.807 10.6373 569.385 10.4443 568.541 10.3394C568.372 10.3184 568.288 10.1757 568.288 9.91975C568.288 9.66379 568.372 9.50014 568.541 9.50014C568.988 9.50014 569.549 9.5337 570.228 9.59664C570.908 9.65958 571.372 9.68896 571.785 9.68896C572.184 9.68394 572.583 9.65733 572.979 9.60923C573.506 9.54159 574.037 9.50517 574.569 9.50014C574.738 9.50014 574.822 9.647 574.822 9.91975C574.822 10.1925 574.738 10.3394 574.569 10.3394C573.868 10.4053 573.183 10.5898 572.544 10.8849C571.691 11.3565 570.902 11.9362 570.199 12.6095L567.465 15.0181L571.591 19.5877C572.237 20.3437 572.985 21.0074 573.814 21.5599C574.545 21.9585 575.353 22.1961 576.185 22.2565C576.353 22.2817 576.438 22.4201 576.438 22.6761" fill="#474747"/>
<path d="M589.34 19.0555C589.347 19.6752 589.213 20.2886 588.95 20.8501C588.686 21.4116 588.299 21.9069 587.817 22.2992C586.796 23.177 585.483 23.6452 584.134 23.6126C583.342 23.5758 582.555 23.4648 581.784 23.2811C581.253 23.1579 580.713 23.0779 580.169 23.0419C580.08 22.3034 579.886 21.183 579.578 19.685C579.578 19.5255 579.734 19.4458 580.042 19.4458C580.35 19.4458 580.464 19.5297 580.502 19.6975C580.765 20.5076 581.27 21.2188 581.949 21.7369C582.563 22.2798 583.351 22.5889 584.172 22.6097C584.509 22.6295 584.846 22.5821 585.164 22.4704C585.482 22.3588 585.774 22.185 586.024 21.9593C586.252 21.7168 586.428 21.4307 586.541 21.1183C586.654 20.8059 586.702 20.4738 586.682 20.1423C586.683 19.8985 586.635 19.6569 586.542 19.4315C586.448 19.2061 586.311 19.0013 586.138 18.8289C585.425 18.2377 584.622 17.7631 583.759 17.4232C582.158 16.6931 581.102 16.0077 580.591 15.3671C580.293 14.9848 580.073 14.5476 579.946 14.0807C579.819 13.6138 579.785 13.1265 579.848 12.6467C579.911 12.167 580.068 11.7043 580.312 11.2854C580.555 10.8665 580.879 10.4996 581.265 10.2058C582.215 9.40393 583.424 8.97029 584.67 8.98472C585.45 9.01224 586.226 9.10771 586.99 9.27006C587.346 9.34892 587.706 9.40221 588.07 9.42952C588.099 10.6884 588.171 11.7332 588.276 12.606C588.276 12.7655 588.12 12.8452 587.812 12.8452C587.505 12.8452 587.391 12.7613 587.37 12.5892C587.284 11.8902 586.98 11.2355 586.501 10.7177C586.287 10.4857 586.026 10.3013 585.735 10.1769C585.444 10.0525 585.13 9.99085 584.813 9.996C583.168 9.996 582.345 10.7136 582.345 12.1486C582.354 12.6551 582.563 13.1376 582.928 13.4914C583.688 14.1447 584.541 14.6834 585.459 15.0901C587.019 15.8678 588.047 16.542 588.542 17.1127C589.023 17.64 589.29 18.3267 589.289 19.0387" fill="#474747"/>
<rect x="244" y="10" width="3" height="3" rx="1.5" fill="#474747"/>
</svg>
