<svg width="54" height="54" viewBox="0 0 54 54" fill="none" xmlns="http://www.w3.org/2000/svg">
<mask id="mask0_1775_29881" style="mask-type:alpha" maskUnits="userSpaceOnUse" x="0" y="0" width="54" height="54">
<rect width="54" height="54" fill="#C6C6C6"/>
</mask>
<g mask="url(#mask0_1775_29881)">
<path d="M29 25L31 27L50 8" stroke="#474747" stroke-width="2" stroke-linejoin="round"/>
<path d="M50 13V8H45" stroke="#474747" stroke-width="2" stroke-linejoin="round"/>
<path d="M27 23L24 20" stroke="#474747" stroke-width="2" stroke-linejoin="round"/>
<path d="M22 18L19 15" stroke="#474747" stroke-width="2" stroke-linejoin="round"/>
<path d="M17 13L14 10" stroke="#474747" stroke-width="2" stroke-linejoin="round"/>
<path d="M19 25L21 27L40 8" stroke="#474747" stroke-width="2" stroke-linejoin="round"/>
<path d="M40 13V8H35" stroke="#474747" stroke-width="2" stroke-linejoin="round"/>
<path d="M17 23L14 20" stroke="#474747" stroke-width="2" stroke-linejoin="round"/>
<path d="M12 18L9 15" stroke="#474747" stroke-width="2" stroke-linejoin="round"/>
<path d="M7 13L4 10" stroke="#474747" stroke-width="2" stroke-linejoin="round"/>
<path d="M5.68848 37.1789L3.37368 39.8815C2.71205 40.654 3.52524 41.8981 4.52103 41.6911C20.1669 38.4378 32.7833 49.0851 45.7631 43.1823C45.9542 43.0954 46.1143 42.9455 46.2156 42.7616L51.118 33.8589C51.5936 32.9952 51.2391 32.6763 50.3098 33.0057C50.1544 33.0608 49.9727 33.12 49.7602 33.1845" stroke="#474747" stroke-width="2" stroke-linecap="round"/>
<path d="M13 23.4316C11.9861 23.5985 10.9536 23.8186 9.90076 24.0999C9.68507 24.1576 9.49635 24.2882 9.3638 24.4679L2.89476 33.2356C2.31325 34.0238 3.11696 35.1521 4.07253 34.9371C20.0293 31.3454 32.8437 42.3399 46.0312 36.336C46.2223 36.249 46.3823 36.0991 46.4836 35.9151L51.4275 26.9293C51.9028 26.0656 50.9328 25.0275 49.9989 25.3434C45.5695 26.8418 41.3219 26.6464 37 25.9249" stroke="#474747" stroke-width="2"/>
</g>
</svg>
