<svg width="54" height="54" viewBox="0 0 54 54" fill="none" xmlns="http://www.w3.org/2000/svg">
<mask id="mask0_871_12308" style="mask-type:alpha" maskUnits="userSpaceOnUse" x="0" y="0" width="54" height="54">
<rect width="54" height="54" fill="#C6C6C6"/>
</mask>
<g mask="url(#mask0_871_12308)">
<path d="M15.4118 11.0022C13.2845 10.2611 12 9.29852 12 8.25926C12 5.90645 18.4926 4 26.4999 4C34.5073 4 40.9999 5.90645 40.9999 8.25926C40.9999 9.30534 39.7171 10.2628 37.5881 11.0039" stroke="#474747" stroke-width="2" stroke-linecap="round" stroke-linejoin="round"/>
<path d="M40.9999 8.25928C40.9999 8.25928 37.5148 20.8173 37.5881 27C37.6615 33.1828 40.9999 45.7408 40.9999 45.7408C40.9999 48.0936 34.5073 50.0001 26.4999 50.0001C18.4926 50.0001 12 48.0936 12 45.7408C12 45.7408 15.3384 33.1828 15.4118 27C15.4851 20.8173 12 8.25928 12 8.25928" stroke="#474747" stroke-width="2" stroke-linecap="round" stroke-linejoin="round"/>
<path d="M26.4999 9.11133C31.9007 9.58496 35.8822 12.3484 35.8822 14.2224C35.8822 16.0965 31.6824 17.6299 26.4999 17.6299C21.3175 17.6299 17.1176 16.0965 17.1176 14.2224C17.1176 14.2224 16.9572 12.6482 23.0882 12.5187C27.445 12.4267 36.8136 15.398 35.8822 21.0373V20.9691C35.8822 22.8517 31.6824 24.3765 26.4999 24.3765C21.3175 24.3765 17.1176 22.8517 17.1176 20.9691C17.1176 19.0865 30.7748 16.6025 35.8822 27.784V27.8521C35.8822 29.7347 31.6824 31.2595 26.4999 31.2595C21.3175 31.2595 17.1176 29.7347 17.1176 27.8521C17.1176 25.9695 30.7748 23.4838 35.8822 34.6669C35.8822 36.5495 31.6824 38.0743 26.4999 38.0743C21.3175 38.0743 17.1176 36.5495 17.1176 34.6669C17.1176 32.7843 30.7748 30.2986 35.8822 41.4817V41.5107C35.8822 43.3848 31.6824 44.9181 26.4999 44.9181C21.3175 44.9181 17.1176 43.3848 17.1176 41.5107C17.1176 39.6366 24.661 38.8103 28.2058 41.5107V41.4817C30.4865 43.1701 30.7646 46.5928 30.7646 46.5928" stroke="#474747" stroke-width="2" stroke-linecap="round" stroke-linejoin="round"/>
</g>
</svg>
