<svg width="54" height="54" viewBox="0 0 54 54" fill="none" xmlns="http://www.w3.org/2000/svg">
<mask id="mask0_1775_29871" style="mask-type:alpha" maskUnits="userSpaceOnUse" x="0" y="0" width="54" height="54">
<rect width="54" height="54" fill="#C6C6C6"/>
</mask>
<g mask="url(#mask0_1775_29871)">
<path d="M27 54C19.7882 54 13.0078 51.1899 7.90864 46.0897C2.8095 40.9896 0 34.2188 0 27.0055C0 19.7923 2.8095 13.0104 7.90864 7.91026C13.0078 2.81008 19.7882 0 27 0C34.2118 0 40.9922 2.81008 46.0914 7.91026C51.1905 13.0104 54 19.7923 54 27.0055C54 34.2188 51.1905 41.0006 46.0914 46.1008C40.9922 51.201 34.2118 54 27 54ZM27 1.6595C20.2306 1.6595 13.8705 4.29257 9.08111 9.08298C4.29168 13.8734 1.65916 20.2348 1.65916 27.0055C1.65916 33.7763 4.29168 40.1377 9.08111 44.9281C13.8705 49.7185 20.2306 52.3516 27 52.3516C33.7694 52.3516 40.1295 49.7185 44.9189 44.9281C49.7083 40.1377 52.3408 33.7763 52.3408 27.0055C52.3408 20.2348 49.7083 13.8734 44.9189 9.08298C40.1295 4.29257 33.7694 1.6595 27 1.6595Z" fill="#474747"/>
<path d="M8.49478 46.333C8.28462 46.333 8.07446 46.2556 7.90855 46.0896C7.58778 45.7688 7.58778 45.2377 7.90855 44.9169L44.8967 7.92129C45.2175 7.60046 45.7484 7.60046 46.0692 7.92129C46.3899 8.24213 46.3899 8.77317 46.0692 9.09401L9.08102 46.1007C8.9151 46.2556 8.70494 46.333 8.49478 46.333Z" fill="#474747"/>
<path d="M14.3561 36.8628C14.0243 36.8628 13.7035 36.6636 13.5818 36.3317C12.9292 34.6501 12.6748 33.1344 12.6748 31.1098C12.6748 27.0496 14.2233 21.9937 16.7231 17.9335C19.6211 13.2205 23.2381 10.6206 26.8993 10.6206C29.8637 10.6206 32.6732 12.2359 35.2393 15.411C35.5269 15.765 35.4716 16.285 35.1176 16.5727C34.7637 16.8603 34.2438 16.805 33.9562 16.451C31.7219 13.6852 29.3438 12.2801 26.9104 12.2801C23.8907 12.2801 20.6941 14.6587 18.15 18.8074C15.8051 22.6243 14.345 27.3373 14.345 31.1098C14.345 32.9132 14.5773 34.2518 15.1414 35.7343C15.3073 36.1658 15.0972 36.6415 14.6658 36.8074C14.5552 36.8406 14.4556 36.8628 14.3561 36.8628Z" fill="#474747"/>
<path d="M26.8874 45.9901C21.921 45.9901 17.397 43.346 14.7866 38.9207C14.5543 38.5224 14.687 38.0135 15.0742 37.7812C15.4724 37.5488 15.9812 37.6816 16.2135 38.0688C18.5252 41.9852 22.5183 44.3196 26.8874 44.3196C33.8116 44.3196 39.4527 38.3896 39.4527 31.0989C39.4527 27.1936 37.8489 22.2041 35.3712 18.3872C35.1168 18 35.2274 17.4911 35.6145 17.2366C36.0017 16.9822 36.5105 17.0928 36.7649 17.48C39.4085 21.5513 41.1229 26.8838 41.1229 31.0879C41.1119 39.3189 34.7296 45.9901 26.8874 45.9901Z" fill="#474747"/>
<path d="M22.2208 28.2002C22.1102 28.2002 21.9885 28.1781 21.8779 28.1228C18.825 26.7288 16.9336 24.1178 16.9336 21.3299C16.9336 19.1836 18.0286 16.5284 19.7984 14.4043C21.8336 11.9703 24.3445 10.6206 26.8885 10.6206C27.342 10.6206 27.7181 10.9968 27.7181 11.4504C27.7181 11.9039 27.342 12.2801 26.8885 12.2801C22.3867 12.2801 18.5817 17.8339 18.5817 21.3299C18.5817 23.4651 20.1081 25.4897 22.5637 26.6181C22.984 26.8062 23.161 27.3041 22.9729 27.7134C22.8291 28.0121 22.5305 28.2002 22.2208 28.2002Z" fill="#474747"/>
<path d="M26.8882 29.1849C26.4236 29.1849 26.0918 29.1627 25.6825 29.1185C25.229 29.0742 24.8972 28.6649 24.9415 28.2113C24.9857 27.7577 25.395 27.4258 25.8485 27.4701C26.2135 27.5032 26.49 27.5254 26.8882 27.5254C31.4675 27.5254 35.195 24.7485 35.195 21.33C35.195 20.5887 35.0181 19.7258 34.6862 18.8408C34.5203 18.4093 34.7415 17.9336 35.1729 17.7676C35.6043 17.6017 36.0799 17.8229 36.2458 18.2544C36.6551 19.3275 36.8652 20.3896 36.8652 21.33C36.8542 25.6557 32.3855 29.1849 26.8882 29.1849Z" fill="#474747"/>
<path d="M32.109 19.1728C31.8103 19.1728 31.5117 19.0069 31.3679 18.7192C30.5273 17.0486 28.8239 15.367 26.8882 15.367C26.4347 15.367 26.0586 14.9909 26.0586 14.5373C26.0586 14.0837 26.4347 13.7075 26.8882 13.7075C28.127 13.7075 29.3769 14.1722 30.4941 15.0572C31.4453 15.8095 32.286 16.8495 32.8501 17.9779C33.0602 18.3873 32.8943 18.8851 32.4851 19.0954C32.3634 19.1396 32.2307 19.1728 32.109 19.1728Z" fill="#474747"/>
<path d="M30.0079 12.933C29.6429 12.933 29.2447 12.8113 28.8022 12.6675C28.2603 12.4904 27.5745 12.2802 26.8887 12.2802C26.1808 12.2802 25.495 12.4794 24.953 12.6453C24.2119 12.8666 23.5704 13.0547 23.0394 12.6564C22.8293 12.5015 22.5859 12.2028 22.5859 11.6496C22.5859 9.27104 24.5216 7.33496 26.8997 7.33496C29.2779 7.33496 31.2136 9.27104 31.2136 11.6496C31.2136 12.2249 30.9591 12.5458 30.7379 12.7007C30.4946 12.8777 30.2623 12.933 30.0079 12.933ZM26.8887 10.6208C27.8399 10.6208 28.6806 10.8863 29.3 11.0854C29.3553 11.1076 29.4217 11.1186 29.488 11.1407C29.2447 9.92379 28.1718 9.00553 26.8887 9.00553C25.6167 9.00553 24.5437 9.91272 24.2893 11.1076C24.3557 11.0854 24.411 11.0744 24.4663 11.0522C25.0968 10.8752 25.9485 10.6208 26.8887 10.6208Z" fill="#474747"/>
<path d="M21.015 14.5596C20.9044 14.5596 20.7827 14.5375 20.6721 14.4821C17.5308 13.066 17.387 9.78014 17.387 9.63632C17.3759 9.18271 17.7299 8.7955 18.1944 8.78443C18.6479 8.77337 19.0351 9.1274 19.0461 9.581C19.0461 9.69164 19.1789 11.9818 21.3579 12.9664C21.7782 13.1545 21.9662 13.6413 21.7671 14.0617C21.6344 14.3826 21.3358 14.5596 21.015 14.5596Z" fill="#474747"/>
<path d="M17.1216 18.1442C16.104 18.1442 15.2523 17.8676 14.5775 17.3255C13.2502 16.2524 13.1838 14.5265 13.1838 14.4601C13.1728 14.0065 13.5378 13.6192 13.9913 13.6082C14.4448 13.5971 14.8319 13.9512 14.843 14.4048C14.843 14.4379 14.8983 15.4558 15.6283 16.0421C16.1703 16.4736 16.9888 16.5843 18.0618 16.3851C18.5153 16.2966 18.9467 16.5953 19.0241 17.0489C19.1126 17.5025 18.8139 17.934 18.3604 18.0115C17.929 18.111 17.5087 18.1442 17.1216 18.1442Z" fill="#474747"/>
<path d="M15.2518 23.5872C12.1104 23.5872 10.4513 21.7948 10.3849 21.7174C10.0752 21.3744 10.0973 20.8544 10.4402 20.5446C10.7831 20.2349 11.303 20.257 11.6127 20.6C11.668 20.6663 12.8958 21.9276 15.2518 21.9276C15.7053 21.9276 16.0814 22.3038 16.0814 22.7574C16.0814 23.211 15.7163 23.5872 15.2518 23.5872Z" fill="#474747"/>
<path d="M13.8137 28.6434C13.7805 28.6434 13.7362 28.6434 13.703 28.6324C11.8116 28.3779 9.67682 28.3558 9.65469 28.3558C9.20119 28.3558 8.82511 27.9796 8.83618 27.515C8.83618 27.0614 9.21225 26.6963 9.66576 26.6963H9.67682C9.7653 26.6963 11.9443 26.7295 13.9243 26.995C14.3778 27.0503 14.6985 27.4707 14.6322 27.9243C14.5769 28.3337 14.2229 28.6434 13.8137 28.6434Z" fill="#474747"/>
<path d="M9.98708 36.0998C9.8101 36.0998 9.62206 36.0445 9.47827 35.9228C9.11325 35.6352 9.05795 35.1152 9.34554 34.7612C11.6684 31.8184 13.4271 32.1724 13.7478 32.272L13.2611 33.854C13.2611 33.854 13.2722 33.8651 13.3054 33.8651C13.2943 33.8651 12.2656 33.7212 10.6397 35.7901C10.4738 35.9892 10.2304 36.0998 9.98708 36.0998Z" fill="#474747"/>
<path d="M32.7394 14.5595C32.4186 14.5595 32.1199 14.3825 31.9872 14.0727C31.7992 13.6523 31.9872 13.1655 32.3965 12.9774C34.5866 11.9927 34.6972 9.69155 34.7082 9.59198C34.7303 9.13838 35.1175 8.77326 35.571 8.79539C36.0245 8.80645 36.3895 9.1937 36.3674 9.6473C36.3674 9.79113 36.2236 13.0659 33.0823 14.4931C32.9716 14.5374 32.861 14.5595 32.7394 14.5595Z" fill="#474747"/>
<path d="M38.5024 23.5868C38.0489 23.5868 37.6729 23.2107 37.6729 22.7571C37.6729 22.3035 38.0489 21.9273 38.5024 21.9273C40.8806 21.9273 42.1305 20.6218 42.1415 20.6107C42.4512 20.2677 42.9711 20.2456 43.314 20.5554C43.6569 20.8652 43.679 21.3852 43.3693 21.7281C43.3029 21.8056 41.6438 23.5868 38.5024 23.5868Z" fill="#474747"/>
<path d="M39.9519 28.643C39.5426 28.643 39.1886 28.3442 39.1333 27.9238C39.078 27.4702 39.3877 27.0498 39.8412 26.9945C41.8322 26.729 44.0002 26.7069 44.0887 26.6958H44.0997C44.5532 26.6958 44.9293 27.0609 44.9293 27.5145C44.9293 27.9681 44.5643 28.3442 44.1108 28.3553C44.0887 28.3553 41.9428 28.3774 40.0625 28.6319C40.0182 28.6429 39.985 28.643 39.9519 28.643Z" fill="#474747"/>
<path d="M43.7677 36.0995C43.5243 36.0995 43.281 35.9889 43.115 35.7787C41.5333 33.7763 40.5157 33.8427 40.5046 33.8427C40.0622 33.9754 39.5976 33.732 39.4649 33.2895C39.3322 32.847 39.5755 32.3823 40.0179 32.2495C40.3498 32.15 42.0974 31.796 44.4203 34.7388C44.7078 35.1038 44.6415 35.6238 44.2875 35.9004C44.1327 36.0442 43.9446 36.0995 43.7677 36.0995Z" fill="#474747"/>
<path d="M41.0678 42.5938C40.6696 42.5938 40.3157 42.3061 40.2493 41.8968C39.8179 39.3633 38.5127 39.3079 38.4906 39.3079C38.0371 39.319 37.65 38.9539 37.6389 38.5003C37.6279 38.0467 37.9929 37.6595 38.4464 37.6484C38.557 37.6484 41.2116 37.6263 41.8863 41.6202C41.9638 42.0738 41.654 42.5052 41.2005 42.5716C41.1563 42.5938 41.1121 42.5938 41.0678 42.5938Z" fill="#474747"/>
<path d="M14.1677 43.3238C13.7584 43.3238 13.3934 43.014 13.3492 42.5936C12.8404 38.5776 15.3955 37.8253 15.495 37.8032L15.9375 39.4074C15.9375 39.4074 15.9485 39.4074 15.9596 39.3963C15.9043 39.4185 14.6765 39.861 14.9973 42.3834C15.0526 42.837 14.7318 43.2574 14.2783 43.3127C14.2341 43.3238 14.2009 43.3238 14.1677 43.3238Z" fill="#474747"/>
</g>
</svg>
