<svg width="54" height="54" viewBox="0 0 54 54" fill="none" xmlns="http://www.w3.org/2000/svg">
<mask id="mask0_1775_29908" style="mask-type:alpha" maskUnits="userSpaceOnUse" x="0" y="0" width="54" height="54">
<rect width="54" height="54" fill="#C6C6C6"/>
</mask>
<g mask="url(#mask0_1775_29908)">
<path d="M27 54C19.7882 54 13.0078 51.1899 7.90864 46.0897C2.8095 40.9896 0 34.2188 0 27.0055C0 19.7923 2.8095 13.0104 7.90864 7.91026C13.0078 2.81008 19.7882 0 27 0C34.2118 0 40.9922 2.81008 46.0914 7.91026C51.1905 13.0104 54 19.7923 54 27.0055C54 34.2188 51.1905 41.0006 46.0914 46.1008C40.9922 51.201 34.2118 54 27 54ZM27 1.6595C20.2306 1.6595 13.8705 4.29257 9.08111 9.08298C4.29168 13.8734 1.65916 20.2348 1.65916 27.0055C1.65916 33.7763 4.29168 40.1377 9.08111 44.9281C13.8705 49.7185 20.2306 52.3516 27 52.3516C33.7694 52.3516 40.1295 49.7185 44.9189 44.9281C49.7083 40.1377 52.3408 33.7763 52.3408 27.0055C52.3408 20.2348 49.7083 13.8734 44.9189 9.08298C40.1295 4.29257 33.7694 1.6595 27 1.6595Z" fill="#474747"/>
<path d="M8.81308 46C8.60641 46 8.39974 45.9239 8.23658 45.7607C7.92114 45.4453 7.92114 44.9232 8.23658 44.6078L44.6104 8.23657C44.9259 7.92114 45.448 7.92114 45.7634 8.23657C46.0789 8.55199 46.0789 9.07407 45.7634 9.38949L9.38958 45.7716C9.22642 45.9239 9.01975 46 8.81308 46Z" fill="#474747"/>
<g clip-path="url(#clip0_1775_29908)">
<path d="M29.25 32.6829V22.8537C29.25 22.4526 29.092 22.068 28.8107 21.7844C28.5294 21.5008 28.1478 21.3415 27.75 21.3415H18.225L14.475 25.8781H12C11.6022 25.8781 11.2206 25.7187 10.9393 25.4352C10.658 25.1516 10.5 24.7669 10.5 24.3659V14.5366C10.5 14.1355 10.658 13.7509 10.9393 13.4673C11.2206 13.1837 11.6022 13.0244 12 13.0244H39.75C40.1478 13.0244 40.5293 13.1837 40.8107 13.4673C41.092 13.7509 41.25 14.1355 41.25 14.5366H42.75C43.1478 14.5366 43.5293 14.6959 43.8107 14.9795C44.092 15.2631 44.25 15.6477 44.25 16.0488V25.122C44.25 25.523 44.092 25.9077 43.8107 26.1913C43.5293 26.4748 43.1478 26.6342 42.75 26.6342H41.25V32.6829H43.5C43.6989 32.6829 43.8897 32.7626 44.0303 32.9044C44.171 33.0462 44.25 33.2385 44.25 33.439V39.4878C44.25 39.6883 44.171 39.8807 44.0303 40.0225C43.8897 40.1642 43.6989 40.2439 43.5 40.2439H10.5C10.3011 40.2439 10.1103 40.1642 9.96968 40.0225C9.82903 39.8807 9.75 39.6883 9.75 39.4878V33.439C9.75 33.2385 9.82903 33.0462 9.96968 32.9044C10.1103 32.7626 10.3011 32.6829 10.5 32.6829H29.25Z" stroke="#474747" stroke-width="2" stroke-linejoin="round"/>
<path d="M41.25 26.634V19.8291" stroke="#474747" stroke-width="2" stroke-linejoin="round"/>
<path d="M41.25 14.5366V17.561" stroke="#474747" stroke-width="2" stroke-linejoin="round"/>
<path d="M12.75 25.8779V31.1706" stroke="#474747" stroke-width="2" stroke-linejoin="round"/>
<path d="M35 25.8301C36.1046 25.8301 37 24.9346 37 23.8301C37 22.7255 36.1046 21.8301 35 21.8301C33.8954 21.8301 33 22.7255 33 23.8301C33 24.9346 33.8954 25.8301 35 25.8301Z" stroke="#474747" stroke-width="2" stroke-linejoin="round"/>
<path d="M35 32.6348C36.1046 32.6348 37 31.7393 37 30.6348C37 29.5302 36.1046 28.6348 35 28.6348C33.8954 28.6348 33 29.5302 33 30.6348C33 31.7393 33.8954 32.6348 35 32.6348Z" stroke="#474747" stroke-width="2" stroke-linejoin="round"/>
<path d="M12.75 10V13.0244" stroke="#474747" stroke-width="2" stroke-linejoin="round"/>
<path d="M35.25 10V13.0244" stroke="#474747" stroke-width="2" stroke-linejoin="round"/>
</g>
</g>
<defs>
<clipPath id="clip0_1775_29908">
<rect width="36" height="31" fill="white" transform="translate(9 10)"/>
</clipPath>
</defs>
</svg>
