<svg width="57" height="57" viewBox="0 0 57 57" fill="none" xmlns="http://www.w3.org/2000/svg">
<rect width="57" height="57" rx="28.5" fill="#364147"/>
<path d="M5.42751 26.5L7.35251 21.537H8.56351L10.4675 26.5H9.15851L7.72351 22.328H8.17851L6.70851 26.5H5.42751ZM6.59651 25.632V24.638H9.33351V25.632H6.59651ZM12.0521 26.5V21.537H13.3051V26.5H12.0521ZM13.0461 26.5V25.422H15.4401V26.5H13.0461ZM17.1438 26.5V21.537H18.3968V26.5H17.1438ZM18.1378 26.5V25.422H20.5318V26.5H18.1378ZM22.2355 26.5V21.537H23.4885V26.5H22.2355ZM23.2295 26.5V25.443H25.9175V26.5H23.2295ZM23.2295 24.484V23.455H25.6655V24.484H23.2295ZM23.2295 22.594V21.537H25.8755V22.594H23.2295ZM28.7382 24.491V23.595H29.6832C29.8885 23.595 30.0448 23.546 30.1522 23.448C30.2642 23.3453 30.3202 23.2077 30.3202 23.035C30.3202 22.867 30.2642 22.7317 30.1522 22.629C30.0448 22.5217 29.8885 22.468 29.6832 22.468H28.7382V21.537H29.8582C30.1942 21.537 30.4882 21.6 30.7402 21.726C30.9968 21.852 31.1975 22.0247 31.3422 22.244C31.4868 22.4633 31.5592 22.72 31.5592 23.014C31.5592 23.308 31.4845 23.567 31.3352 23.791C31.1905 24.0103 30.9875 24.183 30.7262 24.309C30.4648 24.4303 30.1592 24.491 29.8092 24.491H28.7382ZM27.7442 26.5V21.537H28.9972V26.5H27.7442ZM30.4322 26.5L28.9902 24.372L30.1172 24.099L31.8812 26.5H30.4322ZM33.4101 26.5V21.537H34.3131L36.2171 24.414H35.7901L37.6871 21.537H38.5901V26.5H37.3511V23.609L37.5471 23.665L36.4061 25.38H35.5941L34.4601 23.665L34.6561 23.609V26.5H33.4101ZM40.2295 26.5L42.1545 21.537H43.3655L45.2695 26.5H43.9605L42.5255 22.328H42.9805L41.5105 26.5H40.2295ZM41.3985 25.632V24.638H44.1355V25.632H41.3985ZM46.8542 26.5V21.537H47.7292L48.1072 22.552V26.5H46.8542ZM50.2772 26.5L47.3792 22.818L47.7292 21.537L50.6342 25.219L50.2772 26.5ZM50.2772 26.5L49.9552 25.457V21.537H51.2082V26.5H50.2772ZM16.9762 35.577C16.5609 35.577 16.1992 35.514 15.8912 35.388C15.5879 35.262 15.3102 35.0637 15.0582 34.793L15.8492 33.995C16.0219 34.177 16.2062 34.317 16.4022 34.415C16.5982 34.5083 16.8199 34.555 17.0672 34.555C17.2772 34.555 17.4382 34.52 17.5502 34.45C17.6669 34.3753 17.7252 34.275 17.7252 34.149C17.7252 34.0323 17.6832 33.9367 17.5992 33.862C17.5152 33.7827 17.4032 33.715 17.2632 33.659C17.1279 33.5983 16.9762 33.5423 16.8082 33.491C16.6449 33.435 16.4792 33.3697 16.3112 33.295C16.1479 33.2157 15.9962 33.12 15.8562 33.008C15.7209 32.896 15.6112 32.756 15.5272 32.588C15.4432 32.42 15.4012 32.2123 15.4012 31.965C15.4012 31.6477 15.4759 31.377 15.6252 31.153C15.7792 30.929 15.9916 30.7563 16.2622 30.635C16.5329 30.5137 16.8479 30.453 17.2072 30.453C17.5666 30.453 17.8979 30.5137 18.2012 30.635C18.5046 30.7563 18.7543 30.9243 18.9503 31.139L18.1522 31.93C18.0029 31.7807 17.8512 31.6687 17.6972 31.594C17.5432 31.5193 17.3752 31.482 17.1932 31.482C17.0206 31.482 16.8852 31.5123 16.7872 31.573C16.6892 31.6337 16.6402 31.72 16.6402 31.832C16.6402 31.944 16.6822 32.035 16.7662 32.105C16.8502 32.175 16.9599 32.238 17.0952 32.294C17.2352 32.3453 17.3869 32.399 17.5502 32.455C17.7182 32.511 17.8839 32.5763 18.0472 32.651C18.2106 32.7257 18.3599 32.8213 18.4953 32.938C18.6352 33.0547 18.7472 33.2017 18.8312 33.379C18.9152 33.5563 18.9572 33.771 18.9572 34.023C18.9572 34.5177 18.7822 34.9003 18.4323 35.171C18.0869 35.4417 17.6016 35.577 16.9762 35.577ZM22.6652 35.57C22.4458 35.57 22.2428 35.5303 22.0562 35.451C21.8695 35.3717 21.7155 35.2643 21.5942 35.129C21.4728 34.989 21.3982 34.828 21.3702 34.646V32.98C21.3982 32.798 21.4728 32.6347 21.5942 32.49C21.7202 32.3407 21.8742 32.224 22.0562 32.14C22.2428 32.0513 22.4458 32.007 22.6652 32.007C22.9965 32.007 23.2882 32.084 23.5402 32.238C23.7922 32.3873 23.9882 32.5973 24.1282 32.868C24.2728 33.1387 24.3452 33.4467 24.3452 33.792C24.3452 34.1327 24.2728 34.4383 24.1282 34.709C23.9882 34.975 23.7922 35.185 23.5402 35.339C23.2882 35.493 22.9965 35.57 22.6652 35.57ZM22.4342 34.485C22.5695 34.485 22.6885 34.4547 22.7912 34.394C22.8938 34.3333 22.9732 34.2517 23.0292 34.149C23.0852 34.0417 23.1132 33.9203 23.1132 33.785C23.1132 33.6497 23.0852 33.5307 23.0292 33.428C22.9732 33.3253 22.8938 33.2437 22.7912 33.183C22.6885 33.1223 22.5718 33.092 22.4412 33.092C22.3152 33.092 22.2008 33.1223 22.0982 33.183C21.9955 33.239 21.9162 33.3207 21.8602 33.428C21.8042 33.5307 21.7762 33.6497 21.7762 33.785C21.7762 33.9203 21.8042 34.0417 21.8602 34.149C21.9162 34.2517 21.9932 34.3333 22.0912 34.394C22.1938 34.4547 22.3082 34.485 22.4342 34.485ZM20.6282 36.949V32.077H21.8462V32.938L21.6432 33.764L21.8182 34.597V36.949H20.6282ZM25.9589 35.5V32.077H27.1839V35.5H25.9589ZM26.5679 31.678C26.3859 31.678 26.2343 31.6173 26.1129 31.496C25.9916 31.37 25.9309 31.2137 25.9309 31.027C25.9309 30.845 25.9916 30.691 26.1129 30.565C26.2343 30.439 26.3859 30.376 26.5679 30.376C26.7593 30.376 26.9133 30.439 27.0299 30.565C27.1513 30.691 27.2119 30.845 27.2119 31.027C27.2119 31.2137 27.1513 31.37 27.0299 31.496C26.9133 31.6173 26.7593 31.678 26.5679 31.678ZM31.2327 35.5V33.568C31.2327 33.4093 31.186 33.2857 31.0927 33.197C30.9993 33.1037 30.8803 33.057 30.7357 33.057C30.6377 33.057 30.549 33.078 30.4697 33.12C30.395 33.162 30.3367 33.2203 30.2947 33.295C30.2527 33.3697 30.2317 33.4607 30.2317 33.568L29.7557 33.344C29.7557 33.0687 29.8163 32.833 29.9377 32.637C30.059 32.4363 30.2247 32.2823 30.4347 32.175C30.6493 32.063 30.892 32.007 31.1627 32.007C31.41 32.007 31.6293 32.0653 31.8207 32.182C32.0167 32.294 32.1707 32.4457 32.2827 32.637C32.3947 32.8283 32.4507 33.0453 32.4507 33.288V35.5H31.2327ZM29.0137 35.5V32.077H30.2317V35.5H29.0137ZM36.4127 35.5L35.3347 33.708L36.4057 32.077H37.7427L36.4127 33.918L36.4477 33.47L37.8127 35.5H36.4127ZM34.2147 35.5V30.397H35.4327V35.5H34.2147ZM40.3828 35.598C40.1728 35.598 39.9652 35.57 39.7598 35.514C39.5592 35.458 39.3702 35.3833 39.1928 35.29C39.0202 35.192 38.8732 35.08 38.7518 34.954L39.4168 34.275C39.5288 34.3917 39.6618 34.4827 39.8158 34.548C39.9745 34.6133 40.1425 34.646 40.3198 34.646C40.4225 34.646 40.4995 34.632 40.5508 34.604C40.6068 34.576 40.6348 34.5363 40.6348 34.485C40.6348 34.4103 40.5952 34.3543 40.5158 34.317C40.4412 34.275 40.3408 34.24 40.2148 34.212C40.0935 34.1793 39.9652 34.142 39.8298 34.1C39.6945 34.0533 39.5638 33.9927 39.4378 33.918C39.3118 33.8433 39.2092 33.7383 39.1298 33.603C39.0552 33.4677 39.0178 33.295 39.0178 33.085C39.0178 32.8657 39.0762 32.6743 39.1928 32.511C39.3142 32.343 39.4822 32.2123 39.6968 32.119C39.9115 32.021 40.1635 31.972 40.4528 31.972C40.7468 31.972 41.0268 32.0233 41.2928 32.126C41.5588 32.224 41.7735 32.3733 41.9368 32.574L41.2648 33.253C41.1528 33.127 41.0292 33.0407 40.8938 32.994C40.7585 32.9427 40.6348 32.917 40.5228 32.917C40.4155 32.917 40.3385 32.9333 40.2918 32.966C40.2452 32.994 40.2218 33.0337 40.2218 33.085C40.2218 33.1457 40.2592 33.1947 40.3338 33.232C40.4132 33.2693 40.5135 33.3043 40.6348 33.337C40.7608 33.365 40.8892 33.4023 41.0198 33.449C41.1552 33.4957 41.2835 33.561 41.4048 33.645C41.5308 33.7243 41.6312 33.8317 41.7058 33.967C41.7852 34.1023 41.8248 34.2773 41.8248 34.492C41.8248 34.8327 41.6942 35.1033 41.4328 35.304C41.1715 35.5 40.8215 35.598 40.3828 35.598Z" fill="white"/>
</svg>
