<svg width="57" height="57" viewBox="0 0 57 57" fill="none" xmlns="http://www.w3.org/2000/svg">
<rect width="57" height="57" rx="28.5" fill="white"/>
<path d="M5.42751 31L7.35251 26.037H8.56351L10.4675 31H9.15851L7.72351 26.828H8.17851L6.70851 31H5.42751ZM6.59651 30.132V29.138H9.33351V30.132H6.59651ZM12.0521 31V26.037H13.3051V31H12.0521ZM13.0461 31V29.922H15.4401V31H13.0461ZM17.1438 31V26.037H18.3968V31H17.1438ZM18.1378 31V29.922H20.5318V31H18.1378ZM22.2355 31V26.037H23.4885V31H22.2355ZM23.2295 31V29.943H25.9175V31H23.2295ZM23.2295 28.984V27.955H25.6655V28.984H23.2295ZM23.2295 27.094V26.037H25.8755V27.094H23.2295ZM28.7382 28.991V28.095H29.6832C29.8885 28.095 30.0448 28.046 30.1522 27.948C30.2642 27.8453 30.3202 27.7077 30.3202 27.535C30.3202 27.367 30.2642 27.2317 30.1522 27.129C30.0448 27.0217 29.8885 26.968 29.6832 26.968H28.7382V26.037H29.8582C30.1942 26.037 30.4882 26.1 30.7402 26.226C30.9968 26.352 31.1975 26.5247 31.3422 26.744C31.4868 26.9633 31.5592 27.22 31.5592 27.514C31.5592 27.808 31.4845 28.067 31.3352 28.291C31.1905 28.5103 30.9875 28.683 30.7262 28.809C30.4648 28.9303 30.1592 28.991 29.8092 28.991H28.7382ZM27.7442 31V26.037H28.9972V31H27.7442ZM30.4322 31L28.9902 28.872L30.1172 28.599L31.8812 31H30.4322ZM33.4101 31V26.037H34.3131L36.2171 28.914H35.7901L37.6871 26.037H38.5901V31H37.3511V28.109L37.5471 28.165L36.4061 29.88H35.5941L34.4601 28.165L34.6561 28.109V31H33.4101ZM40.2295 31L42.1545 26.037H43.3655L45.2695 31H43.9605L42.5255 26.828H42.9805L41.5105 31H40.2295ZM41.3985 30.132V29.138H44.1355V30.132H41.3985ZM46.8542 31V26.037H47.7292L48.1072 27.052V31H46.8542ZM50.2772 31L47.3792 27.318L47.7292 26.037L50.6342 29.719L50.2772 31ZM50.2772 31L49.9552 29.957V26.037H51.2082V31H50.2772Z" fill="black"/>
</svg>
